<?xml version="1.0" standalone="no"?><!DOCTYPE svg PUBLIC "-//W3C//DTD SVG 1.1//EN" "http://www.w3.org/Graphics/SVG/1.1/DTD/svg11.dtd"><svg height="1044" node-id="1" sillyvg="true" template-height="1044" template-width="1024" version="1.1" viewBox="0 0 1024 1044" width="1024" xmlns="http://www.w3.org/2000/svg" xmlns:xlink="http://www.w3.org/1999/xlink"><defs node-id="143"><linearGradient gradientUnits="objectBoundingBox" id="linearGradient-7" node-id="26" spreadMethod="pad" x1="0.5" x2="0.5" y1="0.14687982" y2="0.93610656"><stop offset="0" stop-color="#ffe476" stop-opacity="0"></stop><stop offset="0.5834152" stop-color="#fdde93"></stop><stop offset="1" stop-color="#ffb02f"></stop></linearGradient><linearGradient gradientUnits="objectBoundingBox" id="linearGradient-10" node-id="36" spreadMethod="pad" x1="0.5" x2="0.5" y1="0.1186253" y2="1"><stop offset="0" stop-color="#ff8b9f"></stop><stop offset="1" stop-color="#ff5166"></stop></linearGradient><linearGradient gradientUnits="objectBoundingBox" id="linearGradient-19" node-id="63" spreadMethod="pad" x1="0.5" x2="0.5" y1="0" y2="1"><stop offset="0" stop-color="#419afa"></stop><stop offset="1" stop-color="#d6f4f9" stop-opacity="0"></stop></linearGradient><linearGradient gradientUnits="objectBoundingBox" id="linearGradient1" node-id="165" spreadMethod="pad" x1="0.5" x2="0.5" y1="0" y2="1"><stop offset="0" stop-color="#ffffff"></stop><stop offset="1" stop-color="#ffedbe"></stop></linearGradient><linearGradient gradientUnits="objectBoundingBox" id="linearGradient-21" node-id="68" spreadMethod="pad" x1="0.5" x2="0.5" y1="0" y2="1"><stop offset="0" stop-color="#ffffff"></stop><stop offset="1" stop-color="#ffedbe"></stop></linearGradient><radialGradient cx="0.5" cy="0.1966899" fx="0.5" fy="0.1966899" gradientUnits="objectBoundingBox" id="radialGradient-1" node-id="5" r="0.9393923" rev="1" spreadMethod="pad"><stop offset="0" stop-color="#ffe476"></stop><stop offset="0.41387266" stop-color="#fcec6c"></stop><stop offset="1" stop-color="#ffb02f"></stop></radialGradient><filter filterUnits="objectBoundingBox" height="975.936" id="filter-3" node-id="10" width="1056.096" x="-72.048004" y="-40.383995"><feGaussianBlur color-interpolation-filters="linearRGB" in="SourceAlpha" result="shadowBlurInner1" stdDeviation="64 64"></feGaussianBlur><feOffset color-interpolation-filters="linearRGB" dx="0" dy="16" in="shadowBlurInner1" result="shadowOffsetInner1"></feOffset><feComposite color-interpolation-filters="linearRGB" in="shadowOffsetInner1" in2="SourceAlpha" k1="0" k2="-1" k3="1" k4="0" operator="arithmetic" result="shadowInnerInner1"></feComposite><feColorMatrix color-interpolation-filters="linearRGB" in="shadowInnerInner1" result="result4" type="matrix" values="0 0 0 0 0.96862745 0 0 0 0 0.6862745 0 0 0 0 0.27058825 0 0 0 0.5011456 0"></feColorMatrix></filter><filter filterUnits="objectBoundingBox" height="399.95203" id="filter-4" node-id="15" width="463.93604" x="448.03198" y="254.58296"><feGaussianBlur color-interpolation-filters="linearRGB" in="SourceGraphic" result="result1" stdDeviation="48 48"></feGaussianBlur></filter><filter filterUnits="objectBoundingBox" height="399.95203" id="filter-5" node-id="17" width="463.93604" x="-31.968002" y="254.58296"><feGaussianBlur color-interpolation-filters="linearRGB" in="SourceGraphic" result="result1" stdDeviation="48 48"></feGaussianBlur></filter><filter filterUnits="objectBoundingBox" height="648.208" id="filter-6" node-id="19" width="759.74396" x="-92.15999" y="-91.872"><feOffset color-interpolation-filters="linearRGB" dx="0" dy="-16" in="SourceAlpha" result="shadowOffsetOuter1"></feOffset><feGaussianBlur color-interpolation-filters="linearRGB" in="shadowOffsetOuter1" result="shadowBlurOuter1" stdDeviation="16 16"></feGaussianBlur><feColorMatrix color-interpolation-filters="linearRGB" in="shadowBlurOuter1" result="shadowMatrixOuter1" type="matrix" values="0 0 0 0 0.88884836 0 0 0 0 0.59170264 0 0 0 0 0.17878589 0 0 0 1 0"></feColorMatrix><feMerge color-interpolation-filters="linearRGB" result="result4"><feMergeNode in="shadowMatrixOuter1"></feMergeNode><feMergeNode in="SourceGraphic"></feMergeNode></feMerge></filter><filter filterUnits="objectBoundingBox" height="396.2922" id="filter-9" node-id="31" width="507.07672" x="33.145927" y="42.44987"><feGaussianBlur color-interpolation-filters="linearRGB" in="SourceAlpha" result="shadowBlurInner1" stdDeviation="8 8"></feGaussianBlur><feOffset color-interpolation-filters="linearRGB" dx="0" dy="0" in="shadowBlurInner1" result="shadowOffsetInner1"></feOffset><feComposite color-interpolation-filters="linearRGB" in="shadowOffsetInner1" in2="SourceAlpha" k1="0" k2="-1" k3="1" k4="0" operator="arithmetic" result="shadowInnerInner1"></feComposite><feColorMatrix color-interpolation-filters="linearRGB" in="shadowInnerInner1" result="result4" type="matrix" values="0 0 0 0 0.6612584 0 0 0 0 0.08722547 0 0 0 0 0.009827761 0 0 0 1 0"></feColorMatrix></filter><filter filterUnits="objectBoundingBox" height="175.17932" id="filter-12" node-id="40" width="507.06247" x="33.146137" y="263.53876"><feGaussianBlur color-interpolation-filters="linearRGB" in="SourceAlpha" result="shadowBlurInner1" stdDeviation="8 8"></feGaussianBlur><feOffset color-interpolation-filters="linearRGB" dx="0" dy="0" in="shadowBlurInner1" result="shadowOffsetInner1"></feOffset><feComposite color-interpolation-filters="linearRGB" in="shadowOffsetInner1" in2="SourceAlpha" k1="0" k2="-1" k3="1" k4="0" operator="arithmetic" result="shadowInnerInner1"></feComposite><feColorMatrix color-interpolation-filters="linearRGB" in="shadowInnerInner1" result="result4" type="matrix" values="0 0 0 0 0.6612584 0 0 0 0 0.08722547 0 0 0 0 0.009827761 0 0 0 1 0"></feColorMatrix></filter><filter filterUnits="objectBoundingBox" height="155.53088" id="filter-14" node-id="46" width="505.56174" x="34.56889" y="269.021"><feGaussianBlur color-interpolation-filters="linearRGB" in="SourceAlpha" result="shadowBlurInner1" stdDeviation="8 8"></feGaussianBlur><feOffset color-interpolation-filters="linearRGB" dx="0" dy="0" in="shadowBlurInner1" result="shadowOffsetInner1"></feOffset><feComposite color-interpolation-filters="linearRGB" in="shadowOffsetInner1" in2="SourceAlpha" k1="0" k2="-1" k3="1" k4="0" operator="arithmetic" result="shadowInnerInner1"></feComposite><feColorMatrix color-interpolation-filters="linearRGB" in="shadowInnerInner1" result="result4" type="matrix" values="0 0 0 0 0.6612584 0 0 0 0 0.08722547 0 0 0 0 0.009827761 0 0 0 1 0"></feColorMatrix></filter><filter filterUnits="objectBoundingBox" height="110.484955" id="filter-16" node-id="52" width="413.26123" x="78.32871" y="42.403015"><feGaussianBlur color-interpolation-filters="linearRGB" in="SourceAlpha" result="shadowBlurInner1" stdDeviation="8 8"></feGaussianBlur><feOffset color-interpolation-filters="linearRGB" dx="0" dy="0" in="shadowBlurInner1" result="shadowOffsetInner1"></feOffset><feComposite color-interpolation-filters="linearRGB" in="shadowOffsetInner1" in2="SourceAlpha" k1="0" k2="-1" k3="1" k4="0" operator="arithmetic" result="shadowInnerInner1"></feComposite><feColorMatrix color-interpolation-filters="linearRGB" in="shadowInnerInner1" result="result4" type="matrix" values="0 0 0 0 0.56078434 0 0 0 0 0.4392157 0 0 0 0 0.37254903 0 0 0 1 0"></feColorMatrix></filter><filter filterUnits="objectBoundingBox" height="413.4066" id="filter-18" node-id="58" width="524.2575" x="24.310127" y="33.702538"><feGaussianBlur color-interpolation-filters="linearRGB" in="SourceAlpha" result="shadowBlurInner1" stdDeviation="8 8"></feGaussianBlur><feOffset color-interpolation-filters="linearRGB" dx="0" dy="0" in="shadowBlurInner1" result="shadowOffsetInner1"></feOffset><feComposite color-interpolation-filters="linearRGB" in="shadowOffsetInner1" in2="SourceAlpha" k1="0" k2="-1" k3="1" k4="0" operator="arithmetic" result="shadowInnerInner1"></feComposite><feColorMatrix color-interpolation-filters="linearRGB" in="shadowInnerInner1" result="result4" type="matrix" values="0 0 0 0 0.6612584 0 0 0 0 0.08722547 0 0 0 0 0.009827761 0 0 0 1 0"></feColorMatrix></filter><filter filterUnits="objectBoundingBox" height="167.40703" id="filter-20" node-id="66" width="415.2088" x="221.9245" y="38.614964"><feGaussianBlur color-interpolation-filters="linearRGB" in="SourceGraphic" result="result1" stdDeviation="0 0"></feGaussianBlur></filter><filter filterUnits="objectBoundingBox" height="591.35986" id="filter-23" node-id="72" width="591.36" x="-103.68" y="-71.72452"><feOffset color-interpolation-filters="linearRGB" dx="0" dy="32" in="SourceAlpha" result="shadowOffsetOuter1"></feOffset><feGaussianBlur color-interpolation-filters="linearRGB" in="shadowOffsetOuter1" result="shadowBlurOuter1" stdDeviation="32 32"></feGaussianBlur><feColorMatrix color-interpolation-filters="linearRGB" in="shadowBlurOuter1" result="result3" type="matrix" values="0 0 0 0 0.88884836 0 0 0 0 0.59170264 0 0 0 0 0.17878589 0 0 0 1 0"></feColorMatrix></filter><filter filterUnits="objectBoundingBox" height="148.15723" id="filter-25" node-id="77" width="148.15723" x="117.8713" y="117.8713"><feGaussianBlur color-interpolation-filters="linearRGB" in="SourceAlpha" result="shadowBlurInner1" stdDeviation="24 24"></feGaussianBlur><feOffset color-interpolation-filters="linearRGB" dx="0" dy="0" in="shadowBlurInner1" result="shadowOffsetInner1"></feOffset><feComposite color-interpolation-filters="linearRGB" in="shadowOffsetInner1" in2="SourceAlpha" k1="0" k2="-1" k3="1" k4="0" operator="arithmetic" result="shadowInnerInner1"></feComposite><feColorMatrix color-interpolation-filters="linearRGB" in="shadowInnerInner1" result="result4" type="matrix" values="0 0 0 0 0.32266015 0 0 0 0 0 0 0 0 0 0.09761147 0 0 0 1 0"></feColorMatrix></filter><filter filterUnits="objectBoundingBox" height="432" id="filter-27" node-id="83" width="432" x="-96" y="-96"><feOffset color-interpolation-filters="linearRGB" dx="0" dy="0" in="SourceAlpha" result="shadowOffsetOuter1"></feOffset><feGaussianBlur color-interpolation-filters="linearRGB" in="shadowOffsetOuter1" result="shadowBlurOuter1" stdDeviation="32 32"></feGaussianBlur><feColorMatrix color-interpolation-filters="linearRGB" in="shadowBlurOuter1" result="result3" type="matrix" values="0 0 0 0 0.88884836 0 0 0 0 0.59170264 0 0 0 0 0.17878589 0 0 0 1 0"></feColorMatrix></filter><filter filterUnits="objectBoundingBox" height="127.99999" id="filter-29" node-id="88" width="127.99999" x="-24" y="-24"><feGaussianBlur color-interpolation-filters="linearRGB" in="SourceAlpha" result="shadowBlurInner1" stdDeviation="24 24"></feGaussianBlur><feOffset color-interpolation-filters="linearRGB" dx="0" dy="0" in="shadowBlurInner1" result="shadowOffsetInner1"></feOffset><feComposite color-interpolation-filters="linearRGB" in="shadowOffsetInner1" in2="SourceAlpha" k1="0" k2="-1" k3="1" k4="0" operator="arithmetic" result="shadowInnerInner1"></feComposite><feColorMatrix color-interpolation-filters="linearRGB" in="shadowInnerInner1" result="result4" type="matrix" values="0 0 0 0 0.32266015 0 0 0 0 0 0 0 0 0 0.09761147 0 0 0 1 0"></feColorMatrix></filter></defs><g node-id="463"><path d="M 0.00 0.00 L 1024.00 0.00 L 1024.00 1024.00 L 0.00 1024.00 Z" fill="none" group-id="1" id="矩形备份-3" node-id="95" stroke="none" target-height="1024" target-width="1024" target-x="0" target-y="0"></path><g node-id="464"><g node-id="465"><g node-id="474"><path d="M 486.90 96.40 L 501.30 96.00 L 515.40 96.30 L 529.20 97.10 L 542.80 98.60 L 556.10 100.60 L 569.40 103.30 L 582.50 106.40 L 595.10 110.20 L 607.50 114.40 L 619.60 119.20 L 631.50 124.60 L 643.10 130.50 L 654.30 136.80 L 665.10 143.60 L 675.60 150.90 L 685.80 158.80 L 695.50 167.00 L 704.90 175.70 L 713.80 184.80 L 722.40 194.30 L 730.40 204.30 L 738.00 214.60 L 745.20 225.30 L 751.80 236.50 L 758.00 248.10 L 769.40 253.30 L 780.50 259.00 L 791.50 265.00 L 802.40 271.40 L 813.10 278.30 L 826.20 287.20 L 838.90 296.70 L 851.30 306.80 L 863.30 317.30 L 872.50 326.10 L 881.50 335.20 L 890.10 344.60 L 898.50 354.20 L 906.50 364.20 L 914.10 374.40 L 921.40 384.80 L 928.30 395.50 L 934.80 406.40 L 940.90 417.60 L 946.50 429.00 L 951.70 440.60 L 956.40 452.30 L 960.70 464.30 L 964.50 476.40 L 967.80 488.70 L 970.50 501.20 L 972.70 513.80 L 974.30 526.60 L 975.50 539.60 L 976.00 552.50 L 975.90 565.50 L 975.20 578.80 L 973.80 592.20 L 971.80 605.70 L 969.00 620.60 L 965.80 635.00 L 962.10 648.90 L 958.00 662.40 L 953.50 675.50 L 948.60 688.20 L 943.20 700.90 L 937.30 713.20 L 931.10 725.10 L 924.50 736.60 L 917.50 747.70 L 910.20 758.50 L 902.30 769.10 L 894.10 779.30 L 885.60 789.10 L 876.70 798.60 L 867.40 807.80 L 857.80 816.60 L 847.90 825.10 L 837.60 833.20 L 826.90 841.00 L 816.00 848.40 L 804.60 855.60 L 784.20 867.80 L 774.80 873.10 L 764.80 878.20 L 754.10 883.20 L 743.50 887.80 L 732.10 892.20 L 719.90 896.50 L 706.80 900.60 L 680.20 907.70 L 665.50 911.00 L 634.40 916.80 L 600.50 921.50 L 581.80 923.50 L 560.70 925.40 L 540.00 926.80 L 519.60 927.60 L 499.60 928.00 L 480.00 927.90 L 460.20 927.30 L 440.80 926.10 L 421.90 924.50 L 403.40 922.50 L 385.40 919.90 L 367.20 916.70 L 349.60 913.10 L 332.40 909.00 L 315.80 904.40 L 299.70 899.30 L 286.20 894.60 L 273.10 889.50 L 260.40 884.10 L 248.10 878.40 L 236.20 872.30 L 224.60 865.90 L 213.10 859.00 L 202.10 851.80 L 191.40 844.20 L 181.20 836.30 L 171.30 828.00 L 161.80 819.30 L 152.70 810.30 L 144.00 800.90 L 135.60 791.10 L 127.70 780.90 L 120.20 770.40 L 113.10 759.40 L 106.60 748.20 L 100.40 736.60 L 94.70 724.60 L 89.50 712.20 L 84.60 699.20 L 80.20 685.80 L 76.50 672.50 L 73.20 658.70 L 70.30 644.40 L 68.00 629.60 L 66.20 614.20 L 64.80 598.20 L 64.10 583.10 L 64.00 568.60 L 64.50 554.60 L 65.40 541.20 L 66.90 528.40 L 68.90 515.30 L 71.40 502.70 L 74.40 490.60 L 77.80 479.00 L 81.70 467.80 L 86.20 456.60 L 91.10 445.90 L 96.30 435.50 L 102.10 425.60 L 108.20 416.00 L 114.80 406.60 L 121.70 397.60 L 129.10 388.90 L 136.80 380.60 L 145.00 372.50 L 153.50 364.80 L 162.30 357.40 L 171.50 350.30 L 181.00 343.40 L 191.00 336.90 L 193.90 323.40 L 197.20 310.50 L 200.80 298.00 L 204.80 286.10 L 209.20 274.60 L 213.80 263.60 L 218.80 253.10 L 224.40 242.40 L 230.30 232.20 L 236.40 222.40 L 242.90 213.10 L 249.70 204.10 L 256.90 195.60 L 264.30 187.40 L 273.50 178.20 L 283.00 169.50 L 293.00 161.30 L 303.40 153.60 L 314.20 146.30 L 325.40 139.60 L 336.90 133.40 L 348.70 127.70 L 361.00 122.40 L 373.60 117.60 L 386.70 113.20 L 400.30 109.30 L 413.70 106.00 L 427.50 103.20 L 441.70 100.80 L 456.30 98.90 L 471.40 97.40 L 486.90 96.40 Z" fill="url(#radialGradient-1)" fill-rule="evenodd" group-id="1,2,3,12" node-id="317" stroke="none" target-height="832" target-width="912" target-x="64" target-y="96"></path></g><path d="M 486.90 96.40 L 501.30 96.00 L 515.40 96.30 L 529.20 97.10 L 542.80 98.60 L 556.10 100.60 L 569.40 103.30 L 582.50 106.40 L 595.10 110.20 L 607.50 114.40 L 619.60 119.20 L 631.50 124.60 L 643.10 130.50 L 654.30 136.80 L 665.10 143.60 L 675.60 150.90 L 685.80 158.80 L 695.50 167.00 L 704.90 175.70 L 713.80 184.80 L 722.40 194.30 L 730.40 204.30 L 738.00 214.60 L 745.20 225.30 L 751.80 236.50 L 758.00 248.10 L 769.40 253.30 L 780.50 259.00 L 791.50 265.00 L 802.40 271.40 L 813.10 278.30 L 826.20 287.20 L 838.90 296.70 L 851.30 306.80 L 863.30 317.30 L 872.50 326.10 L 881.50 335.20 L 890.10 344.60 L 898.50 354.20 L 906.50 364.20 L 914.10 374.40 L 921.40 384.80 L 928.30 395.50 L 934.80 406.40 L 940.90 417.60 L 946.50 429.00 L 951.70 440.60 L 956.40 452.30 L 960.70 464.30 L 964.50 476.40 L 967.80 488.70 L 970.50 501.20 L 972.70 513.80 L 974.30 526.60 L 975.50 539.60 L 976.00 552.50 L 975.90 565.50 L 975.20 578.80 L 973.80 592.20 L 971.80 605.70 L 969.00 620.60 L 965.80 635.00 L 962.10 648.90 L 958.00 662.40 L 953.50 675.50 L 948.60 688.20 L 943.20 700.90 L 937.30 713.20 L 931.10 725.10 L 924.50 736.60 L 917.50 747.70 L 910.20 758.50 L 902.30 769.10 L 894.10 779.30 L 885.60 789.10 L 876.70 798.60 L 867.40 807.80 L 857.80 816.60 L 847.90 825.10 L 837.60 833.20 L 826.90 841.00 L 816.00 848.40 L 804.60 855.60 L 784.20 867.80 L 774.80 873.10 L 764.80 878.20 L 754.10 883.20 L 743.50 887.80 L 732.10 892.20 L 719.90 896.50 L 706.80 900.60 L 680.20 907.70 L 665.50 911.00 L 634.40 916.80 L 600.50 921.50 L 581.80 923.50 L 560.70 925.40 L 540.00 926.80 L 519.60 927.60 L 499.60 928.00 L 480.00 927.90 L 460.20 927.30 L 440.80 926.10 L 421.90 924.50 L 403.40 922.50 L 385.40 919.90 L 367.20 916.70 L 349.60 913.10 L 332.40 909.00 L 315.80 904.40 L 299.70 899.30 L 286.20 894.60 L 273.10 889.50 L 260.40 884.10 L 248.10 878.40 L 236.20 872.30 L 224.60 865.90 L 213.10 859.00 L 202.10 851.80 L 191.40 844.20 L 181.20 836.30 L 171.30 828.00 L 161.80 819.30 L 152.70 810.30 L 144.00 800.90 L 135.60 791.10 L 127.70 780.90 L 120.20 770.40 L 113.10 759.40 L 106.60 748.20 L 100.40 736.60 L 94.70 724.60 L 89.50 712.20 L 84.60 699.20 L 80.20 685.80 L 76.50 672.50 L 73.20 658.70 L 70.30 644.40 L 68.00 629.60 L 66.20 614.20 L 64.80 598.20 L 64.10 583.10 L 64.00 568.60 L 64.50 554.60 L 65.40 541.20 L 66.90 528.40 L 68.90 515.30 L 71.40 502.70 L 74.40 490.60 L 77.80 479.00 L 81.70 467.80 L 86.20 456.60 L 91.10 445.90 L 96.30 435.50 L 102.10 425.60 L 108.20 416.00 L 114.80 406.60 L 121.70 397.60 L 129.10 388.90 L 136.80 380.60 L 145.00 372.50 L 153.50 364.80 L 162.30 357.40 L 171.50 350.30 L 181.00 343.40 L 191.00 336.90 L 193.90 323.40 L 197.20 310.50 L 200.80 298.00 L 204.80 286.10 L 209.20 274.60 L 213.80 263.60 L 218.80 253.10 L 224.40 242.40 L 230.30 232.20 L 236.40 222.40 L 242.90 213.10 L 249.70 204.10 L 256.90 195.60 L 264.30 187.40 L 273.50 178.20 L 283.00 169.50 L 293.00 161.30 L 303.40 153.60 L 314.20 146.30 L 325.40 139.60 L 336.90 133.40 L 348.70 127.70 L 361.00 122.40 L 373.60 117.60 L 386.70 113.20 L 400.30 109.30 L 413.70 106.00 L 427.50 103.20 L 441.70 100.80 L 456.30 98.90 L 471.40 97.40 L 486.90 96.40 Z" fill="#000000" fill-rule="evenodd" filter="url(#filter-3)" group-id="1,2,3,13" node-id="322" stroke="none" target-height="832" target-width="912" target-x="64" target-y="96"></path></g><g node-id="466"><path d="M 832.00 518.60 L 831.70 523.20 L 830.90 527.70 L 829.50 532.00 L 827.50 536.30 L 825.10 540.30 L 822.30 544.20 L 818.90 548.00 L 815.00 551.70 L 806.40 558.10 L 801.40 561.10 L 790.50 566.20 L 778.40 570.20 L 765.20 573.00 L 758.40 573.90 L 744.00 574.60 L 729.60 573.90 L 716.20 571.80 L 703.40 568.30 L 692.00 563.80 L 686.60 561.10 L 681.60 558.10 L 673.00 551.70 L 669.10 548.00 L 665.70 544.20 L 662.90 540.30 L 660.50 536.30 L 658.50 532.00 L 657.10 527.70 L 656.30 523.20 L 656.00 518.60 L 656.30 514.00 L 657.10 509.60 L 658.50 505.20 L 660.50 500.90 L 662.90 496.90 L 665.70 493.00 L 669.10 489.20 L 673.00 485.50 L 677.10 482.20 L 686.60 476.20 L 692.00 473.40 L 703.40 468.90 L 709.60 467.10 L 722.80 464.30 L 729.60 463.40 L 744.00 462.60 L 758.40 463.40 L 765.20 464.30 L 778.40 467.10 L 790.50 471.00 L 801.40 476.20 L 806.40 479.10 L 815.00 485.50 L 818.90 489.20 L 822.30 493.00 L 825.10 496.90 L 827.50 500.90 L 829.50 505.20 L 830.90 509.60 L 831.70 514.00 L 832.00 518.60 Z" fill="#ff5ea4" fill-opacity="0.8" fill-rule="evenodd" filter="url(#filter-4)" group-id="1,2,4" id="椭圆形" node-id="100" stroke="none" target-height="111.99997" target-width="176" target-x="656" target-y="462.6"></path></g><g node-id="467"><path d="M 352.00 518.60 L 351.70 523.20 L 350.90 527.70 L 349.50 532.00 L 347.50 536.30 L 345.10 540.30 L 342.30 544.20 L 338.90 548.00 L 335.00 551.70 L 326.40 558.10 L 321.40 561.10 L 310.50 566.20 L 298.40 570.20 L 285.20 573.00 L 278.40 573.90 L 264.00 574.60 L 249.60 573.90 L 236.20 571.80 L 223.40 568.30 L 212.00 563.80 L 206.60 561.10 L 201.60 558.10 L 193.00 551.70 L 189.10 548.00 L 185.70 544.20 L 182.90 540.30 L 180.50 536.30 L 178.50 532.00 L 177.10 527.70 L 176.30 523.20 L 176.00 518.60 L 176.30 514.00 L 177.10 509.60 L 178.50 505.20 L 180.50 500.90 L 182.90 496.90 L 185.70 493.00 L 189.10 489.20 L 193.00 485.50 L 197.10 482.20 L 206.60 476.20 L 212.00 473.40 L 223.40 468.90 L 229.60 467.10 L 242.80 464.30 L 249.60 463.40 L 264.00 462.60 L 278.40 463.40 L 285.20 464.30 L 298.40 467.10 L 310.50 471.00 L 321.40 476.20 L 326.40 479.10 L 335.00 485.50 L 338.90 489.20 L 342.30 493.00 L 345.10 496.90 L 347.50 500.90 L 349.50 505.20 L 350.90 509.60 L 351.70 514.00 L 352.00 518.60 Z" fill="#ff5ea4" fill-opacity="0.8" fill-rule="evenodd" filter="url(#filter-5)" group-id="1,2,5" id="椭圆形备份-6" node-id="101" stroke="none" target-height="111.99997" target-width="176" target-x="176" target-y="462.6"></path></g><g node-id="468"><path d="M 277.20 612.00 L 288.60 586.90 L 295.50 573.60 L 302.40 563.50 L 306.40 558.70 L 311.00 554.00 L 316.20 549.40 L 321.80 545.20 L 328.40 541.00 L 336.00 537.00 L 348.30 531.70 L 363.70 526.60 L 374.50 523.80 L 386.90 521.20 L 401.20 518.80 L 415.60 516.80 L 432.00 515.10 L 450.50 513.80 L 469.10 512.80 L 490.10 512.20 L 513.60 512.00 L 534.90 512.30 L 554.80 513.10 L 573.40 514.50 L 590.70 516.30 L 606.80 518.50 L 621.70 521.20 L 635.60 524.30 L 648.50 527.70 L 660.40 531.40 L 671.30 535.40 L 681.50 539.70 L 690.80 544.30 L 699.50 549.20 L 707.40 554.30 L 714.60 559.70 L 721.20 565.30 L 727.30 571.10 L 732.70 577.20 L 737.70 583.50 L 742.10 590.20 L 746.10 597.10 L 749.50 604.30 L 752.50 611.80 L 755.00 619.70 L 764.30 652.70 L 772.40 683.20 L 779.20 711.40 L 784.90 737.40 L 789.60 761.20 L 793.30 783.10 L 796.10 803.20 L 798.10 821.50 L 799.40 838.20 L 799.90 853.40 L 799.90 867.20 L 799.30 879.70 L 798.20 891.00 L 796.60 901.20 L 794.70 910.40 L 792.30 918.60 L 789.60 926.00 L 786.70 932.60 L 783.40 938.50 L 779.80 943.70 L 776.00 948.40 L 771.90 952.40 L 767.50 956.00 L 762.80 959.00 L 757.80 961.60 L 752.40 963.80 L 746.60 965.40 L 740.40 966.60 L 733.70 967.20 L 721.60 967.70 L 701.40 967.70 L 683.50 966.50 L 668.50 964.20 L 655.50 961.20 L 646.40 958.50 L 638.10 955.50 L 605.70 942.20 L 596.90 938.90 L 586.90 935.80 L 572.40 932.20 L 555.40 929.10 L 535.00 926.80 L 512.00 925.70 L 498.30 925.50 L 483.10 925.70 L 469.30 926.40 L 457.00 927.30 L 444.70 928.80 L 433.70 930.40 L 414.00 934.50 L 397.20 939.40 L 385.70 943.50 L 375.70 947.70 L 366.20 952.10 L 342.00 964.40 L 334.40 968.00 L 326.80 971.00 L 316.30 974.00 L 310.80 975.10 L 305.10 975.70 L 299.00 976.00 L 284.40 975.80 L 271.10 975.10 L 260.80 973.30 L 255.80 971.80 L 251.10 969.80 L 246.60 967.10 L 243.50 964.80 L 240.50 962.10 L 237.70 958.80 L 235.00 955.00 L 232.70 951.00 L 230.60 946.40 L 228.70 941.00 L 227.10 934.70 L 225.90 928.70 L 224.90 921.60 L 224.30 913.60 L 224.00 904.40 L 224.60 885.70 L 225.50 874.50 L 232.40 819.70 L 241.10 756.80 L 248.30 713.00 L 252.40 692.20 L 256.60 673.30 L 261.00 656.40 L 264.80 643.70 L 268.80 632.10 L 272.90 621.50 L 277.20 612.00 Z" fill="url(#linearGradient-7)" fill-rule="evenodd" filter="url(#filter-6)" group-id="1,2,6" id="路径-52" node-id="103" stroke="none" target-height="464" target-width="575.9" target-x="224" target-y="512"></path><g node-id="476"><g node-id="485"><path d="M 306.70 655.50 L 314.20 639.80 L 318.40 631.90 L 323.30 623.80 L 326.90 618.60 L 331.00 613.40 L 335.70 608.20 L 340.80 603.30 L 346.60 598.50 L 353.30 593.70 L 358.50 590.50 L 370.70 584.20 L 377.80 581.10 L 392.70 576.00 L 401.40 573.50 L 420.30 569.40 L 442.10 566.10 L 454.60 564.80 L 471.00 563.50 L 489.60 562.70 L 510.40 562.40 L 528.30 562.70 L 544.90 563.50 L 560.40 564.80 L 574.80 566.60 L 588.30 568.80 L 600.80 571.40 L 612.40 574.30 L 623.10 577.70 L 633.10 581.30 L 642.30 585.30 L 650.80 589.50 L 658.70 594.10 L 666.00 598.90 L 672.70 604.00 L 678.80 609.40 L 684.40 615.00 L 689.50 621.00 L 694.20 627.20 L 698.40 633.80 L 702.10 640.60 L 705.40 647.90 L 708.20 655.50 L 718.30 686.00 L 726.90 714.00 L 734.20 739.40 L 740.30 762.60 L 745.20 783.70 L 749.00 802.70 L 751.90 819.90 L 754.00 835.40 L 755.30 849.30 L 755.80 861.80 L 755.80 872.90 L 755.20 882.80 L 754.10 891.60 L 752.60 899.40 L 750.70 906.20 L 748.40 912.30 L 745.80 917.60 L 742.90 922.20 L 739.80 926.20 L 736.30 929.70 L 732.60 932.70 L 728.50 935.20 L 724.10 937.20 L 719.30 938.80 L 714.00 939.90 L 708.20 940.60 L 698.70 940.90 L 690.30 940.80 L 683.00 940.30 L 675.60 939.40 L 669.10 938.20 L 663.30 936.70 L 652.50 932.80 L 640.80 926.90 L 634.40 922.80 L 615.20 909.60 L 603.10 902.30 L 591.70 896.80 L 585.60 894.40 L 571.00 889.90 L 563.20 888.10 L 554.40 886.50 L 544.40 885.20 L 534.30 884.30 L 523.00 883.70 L 510.10 883.50 L 494.00 883.70 L 479.50 884.50 L 466.50 885.70 L 453.50 887.40 L 441.90 889.30 L 431.50 891.60 L 421.10 894.30 L 411.90 897.10 L 403.70 900.00 L 395.50 903.30 L 381.70 909.80 L 372.40 915.00 L 364.30 920.00 L 343.70 933.20 L 337.90 936.40 L 330.00 939.60 L 319.20 941.70 L 312.20 942.50 L 303.00 942.70 L 298.50 942.30 L 294.10 941.50 L 289.90 940.20 L 285.90 938.50 L 280.40 934.80 L 275.40 929.40 L 273.40 926.40 L 271.50 922.80 L 269.70 918.50 L 268.20 913.60 L 266.10 903.20 L 265.40 896.80 L 265.00 889.50 L 265.10 880.00 L 265.70 868.70 L 267.10 855.60 L 275.40 791.30 L 279.70 762.10 L 284.00 736.40 L 287.20 719.70 L 290.50 704.60 L 294.00 691.00 L 297.00 680.80 L 300.10 671.50 L 303.30 663.10 L 306.70 655.50 Z" fill="#cb141e" fill-rule="evenodd" group-id="1,2,6,14,23" node-id="339" stroke="none" target-height="380.3" target-width="490.8" target-x="265" target-y="562.4"></path></g><path d="M 306.70 655.50 L 314.20 639.80 L 318.40 631.90 L 323.30 623.80 L 326.90 618.60 L 331.00 613.40 L 335.70 608.20 L 340.80 603.30 L 346.60 598.50 L 353.30 593.70 L 358.50 590.50 L 370.70 584.20 L 377.80 581.10 L 392.70 576.00 L 401.40 573.50 L 420.30 569.40 L 442.10 566.10 L 454.60 564.80 L 471.00 563.50 L 489.60 562.70 L 510.40 562.40 L 528.30 562.70 L 544.90 563.50 L 560.40 564.80 L 574.80 566.60 L 588.30 568.80 L 600.80 571.40 L 612.40 574.30 L 623.10 577.70 L 633.10 581.30 L 642.30 585.30 L 650.80 589.50 L 658.70 594.10 L 666.00 598.90 L 672.70 604.00 L 678.80 609.40 L 684.40 615.00 L 689.50 621.00 L 694.20 627.20 L 698.40 633.80 L 702.10 640.60 L 705.40 647.90 L 708.20 655.50 L 718.30 686.00 L 726.90 714.00 L 734.20 739.40 L 740.30 762.60 L 745.20 783.70 L 749.00 802.70 L 751.90 819.90 L 754.00 835.40 L 755.30 849.30 L 755.80 861.80 L 755.80 872.90 L 755.20 882.80 L 754.10 891.60 L 752.60 899.40 L 750.70 906.20 L 748.40 912.30 L 745.80 917.60 L 742.90 922.20 L 739.80 926.20 L 736.30 929.70 L 732.60 932.70 L 728.50 935.20 L 724.10 937.20 L 719.30 938.80 L 714.00 939.90 L 708.20 940.60 L 698.70 940.90 L 690.30 940.80 L 683.00 940.30 L 675.60 939.40 L 669.10 938.20 L 663.30 936.70 L 652.50 932.80 L 640.80 926.90 L 634.40 922.80 L 615.20 909.60 L 603.10 902.30 L 591.70 896.80 L 585.60 894.40 L 571.00 889.90 L 563.20 888.10 L 554.40 886.50 L 544.40 885.20 L 534.30 884.30 L 523.00 883.70 L 510.10 883.50 L 494.00 883.70 L 479.50 884.50 L 466.50 885.70 L 453.50 887.40 L 441.90 889.30 L 431.50 891.60 L 421.10 894.30 L 411.90 897.10 L 403.70 900.00 L 395.50 903.30 L 381.70 909.80 L 372.40 915.00 L 364.30 920.00 L 343.70 933.20 L 337.90 936.40 L 330.00 939.60 L 319.20 941.70 L 312.20 942.50 L 303.00 942.70 L 298.50 942.30 L 294.10 941.50 L 289.90 940.20 L 285.90 938.50 L 280.40 934.80 L 275.40 929.40 L 273.40 926.40 L 271.50 922.80 L 269.70 918.50 L 268.20 913.60 L 266.10 903.20 L 265.40 896.80 L 265.00 889.50 L 265.10 880.00 L 265.70 868.70 L 267.10 855.60 L 275.40 791.30 L 279.70 762.10 L 284.00 736.40 L 287.20 719.70 L 290.50 704.60 L 294.00 691.00 L 297.00 680.80 L 300.10 671.50 L 303.30 663.10 L 306.70 655.50 Z" fill="#000000" fill-rule="evenodd" filter="url(#filter-9)" group-id="1,2,6,14,24" node-id="344" stroke="none" target-height="380.3" target-width="490.8" target-x="265" target-y="562.4"></path></g><path d="M 467.90 746.30 L 467.60 737.30 L 467.90 730.50 L 468.70 725.30 L 469.80 721.50 L 471.10 718.80 L 472.60 717.00 L 474.30 715.80 L 480.30 713.70 L 482.20 712.50 L 484.10 710.50 L 486.10 706.90 L 487.70 701.40 L 488.30 693.30 L 487.90 690.00 L 487.00 687.10 L 485.60 684.60 L 483.70 682.40 L 481.30 680.40 L 478.40 678.70 L 475.30 677.40 L 467.80 675.40 L 461.60 674.60 L 454.80 674.30 L 441.30 674.70 L 433.20 676.00 L 429.60 677.00 L 426.20 678.50 L 423.10 680.50 L 420.30 683.10 L 418.50 685.30 L 415.40 691.00 L 414.20 694.70 L 413.00 699.70 L 412.30 706.00 L 412.10 720.20 L 413.20 733.60 L 414.20 740.30 L 415.70 746.90 L 417.60 753.50 L 420.00 759.90 L 422.90 766.10 L 426.50 772.10 L 429.50 776.40 L 433.00 780.40 L 436.90 784.30 L 441.30 788.00 L 445.80 791.30 L 451.00 794.40 L 456.70 797.20 L 463.10 799.80 L 469.50 801.90 L 476.60 803.70 L 484.50 805.10 L 493.30 806.20 L 500.90 806.60 L 514.50 806.30 L 520.60 805.60 L 532.60 803.10 L 543.10 799.60 L 549.60 796.70 L 555.60 793.40 L 561.00 789.90 L 566.10 786.00 L 570.60 782.10 L 574.70 778.10 L 578.40 773.80 L 584.50 765.70 L 588.10 759.70 L 590.70 754.60 L 592.70 749.80 L 594.40 742.80 L 595.00 737.50 L 595.30 725.00 L 594.80 717.90 L 593.80 710.50 L 592.70 705.60 L 589.70 696.00 L 587.60 691.40 L 585.10 687.20 L 582.20 683.30 L 579.80 680.70 L 577.00 678.30 L 570.60 674.40 L 567.20 672.90 L 563.30 671.90 L 559.00 671.20 L 554.20 670.90 L 548.50 671.20 L 539.60 672.50 L 532.80 675.00 L 530.00 676.60 L 527.70 678.30 L 525.90 680.10 L 524.00 683.00 L 522.70 686.00 L 522.00 689.10 L 521.80 692.30 L 522.10 695.50 L 522.80 698.80 L 523.90 701.90 L 527.00 707.50 L 531.00 712.10 L 535.00 715.40 L 536.80 717.60 L 538.20 720.40 L 540.20 726.70 L 540.80 730.40 L 541.20 736.00 L 540.90 741.70 L 540.40 745.50 L 538.60 752.30 L 537.20 755.50 L 535.70 758.10 L 533.90 760.20 L 530.70 762.50 L 527.00 763.30 L 481.10 763.30 L 479.90 763.00 L 478.40 762.20 L 476.60 760.50 L 474.30 757.60 L 471.40 753.00 L 467.90 746.30 Z" fill="#771b09" fill-rule="evenodd" filter="url(#filter-6)" group-id="1,2,6" id="路径-38" node-id="107" stroke="none" target-height="135.69995" target-width="183.19998" target-x="412.1" target-y="670.9"></path><g node-id="477"><g node-id="487"><path d="M 508.40 783.50 L 524.40 783.80 L 540.00 784.50 L 555.30 785.80 L 570.20 787.50 L 585.10 789.80 L 599.60 792.40 L 613.70 795.50 L 627.20 799.00 L 640.80 803.00 L 653.80 807.30 L 666.30 812.00 L 678.20 817.00 L 690.00 822.60 L 701.20 828.40 L 711.70 834.50 L 721.50 840.80 L 731.20 847.70 L 740.10 854.80 L 748.30 862.00 L 755.90 869.50 L 755.40 879.90 L 754.50 889.20 L 753.00 897.40 L 751.20 904.60 L 748.90 910.90 L 746.40 916.50 L 743.50 921.40 L 740.30 925.60 L 736.90 929.20 L 733.10 932.40 L 728.90 935.00 L 724.40 937.10 L 719.50 938.80 L 714.10 939.90 L 708.20 940.60 L 698.70 940.90 L 690.30 940.80 L 683.00 940.30 L 675.60 939.40 L 669.10 938.20 L 663.30 936.70 L 652.50 932.80 L 640.80 926.90 L 634.40 922.80 L 615.20 909.60 L 603.10 902.30 L 591.70 896.80 L 578.70 892.10 L 563.20 888.10 L 554.40 886.50 L 544.40 885.20 L 534.30 884.30 L 523.00 883.70 L 510.10 883.50 L 494.00 883.70 L 479.50 884.50 L 466.50 885.70 L 453.50 887.40 L 441.90 889.30 L 431.50 891.60 L 421.10 894.30 L 411.90 897.10 L 395.50 903.30 L 381.70 909.80 L 372.40 915.00 L 364.30 920.00 L 343.70 933.20 L 333.90 938.20 L 326.10 940.60 L 312.70 942.40 L 308.10 942.70 L 299.40 942.40 L 295.10 941.70 L 291.00 940.60 L 287.00 939.00 L 281.60 935.70 L 276.70 930.90 L 272.60 924.90 L 270.80 921.10 L 267.80 912.40 L 265.90 901.60 L 265.30 895.00 L 265.00 886.30 L 265.20 876.20 L 266.10 864.30 L 273.80 857.30 L 282.10 850.40 L 291.10 843.80 L 300.70 837.30 L 310.50 831.30 L 320.90 825.60 L 331.90 820.10 L 343.50 814.90 L 355.20 810.20 L 367.40 805.80 L 380.10 801.70 L 393.30 798.00 L 406.50 794.70 L 420.10 791.80 L 434.20 789.30 L 448.70 787.20 L 463.10 785.60 L 477.90 784.50 L 493.00 783.80 L 508.40 783.50 Z" fill="url(#linearGradient-10)" fill-rule="evenodd" group-id="1,2,6,15,25" node-id="352" stroke="none" target-height="159.20001" target-width="490.90002" target-x="265" target-y="783.5"></path></g><path d="M 508.40 783.50 L 524.40 783.80 L 540.00 784.50 L 555.30 785.80 L 570.20 787.50 L 585.10 789.80 L 599.60 792.40 L 613.70 795.50 L 627.20 799.00 L 640.80 803.00 L 653.80 807.30 L 666.30 812.00 L 678.20 817.00 L 690.00 822.60 L 701.20 828.40 L 711.70 834.50 L 721.50 840.80 L 731.20 847.70 L 740.10 854.80 L 748.30 862.00 L 755.90 869.50 L 755.40 879.90 L 754.50 889.20 L 753.00 897.40 L 751.20 904.60 L 748.90 910.90 L 746.40 916.50 L 743.50 921.40 L 740.30 925.60 L 736.90 929.20 L 733.10 932.40 L 728.90 935.00 L 724.40 937.10 L 719.50 938.80 L 714.10 939.90 L 708.20 940.60 L 698.70 940.90 L 690.30 940.80 L 683.00 940.30 L 675.60 939.40 L 669.10 938.20 L 663.30 936.70 L 652.50 932.80 L 640.80 926.90 L 634.40 922.80 L 615.20 909.60 L 603.10 902.30 L 591.70 896.80 L 578.70 892.10 L 563.20 888.10 L 554.40 886.50 L 544.40 885.20 L 534.30 884.30 L 523.00 883.70 L 510.10 883.50 L 494.00 883.70 L 479.50 884.50 L 466.50 885.70 L 453.50 887.40 L 441.90 889.30 L 431.50 891.60 L 421.10 894.30 L 411.90 897.10 L 395.50 903.30 L 381.70 909.80 L 372.40 915.00 L 364.30 920.00 L 343.70 933.20 L 333.90 938.20 L 326.10 940.60 L 312.70 942.40 L 308.10 942.70 L 299.40 942.40 L 295.10 941.70 L 291.00 940.60 L 287.00 939.00 L 281.60 935.70 L 276.70 930.90 L 272.60 924.90 L 270.80 921.10 L 267.80 912.40 L 265.90 901.60 L 265.30 895.00 L 265.00 886.30 L 265.20 876.20 L 266.10 864.30 L 273.80 857.30 L 282.10 850.40 L 291.10 843.80 L 300.70 837.30 L 310.50 831.30 L 320.90 825.60 L 331.90 820.10 L 343.50 814.90 L 355.20 810.20 L 367.40 805.80 L 380.10 801.70 L 393.30 798.00 L 406.50 794.70 L 420.10 791.80 L 434.20 789.30 L 448.70 787.20 L 463.10 785.60 L 477.90 784.50 L 493.00 783.80 L 508.40 783.50 Z" fill="#000000" fill-rule="evenodd" filter="url(#filter-12)" group-id="1,2,6,15,26" node-id="357" stroke="none" target-height="159.20001" target-width="490.90002" target-x="265" target-y="783.5"></path></g><g node-id="478"><g node-id="489"><path d="M 734.60 789.00 L 748.30 799.00 L 752.20 821.50 L 754.20 836.90 L 755.30 849.90 L 755.80 860.70 L 755.70 869.10 L 755.20 876.20 L 754.30 882.40 L 753.10 887.50 L 751.30 892.80 L 749.30 897.30 L 746.90 901.10 L 744.10 904.20 L 741.00 907.00 L 737.40 909.50 L 733.40 911.50 L 729.00 913.10 L 722.80 914.70 L 715.80 915.80 L 699.50 917.20 L 686.30 919.30 L 677.50 921.40 L 657.90 927.20 L 650.80 928.40 L 647.70 928.40 L 644.60 928.00 L 641.40 927.00 L 638.20 925.30 L 613.40 908.40 L 606.40 904.20 L 594.00 897.80 L 585.50 894.40 L 573.10 890.50 L 558.40 887.20 L 541.00 884.90 L 521.60 883.60 L 510.10 883.50 L 495.50 883.70 L 482.20 884.30 L 470.10 885.30 L 458.00 886.70 L 447.10 888.40 L 427.50 892.60 L 410.60 897.50 L 395.60 903.30 L 380.30 910.60 L 362.90 920.80 L 350.40 921.20 L 339.10 921.00 L 328.90 920.30 L 319.90 919.10 L 311.80 917.50 L 304.70 915.60 L 298.30 913.40 L 292.70 910.80 L 287.80 907.90 L 283.50 904.80 L 279.70 901.50 L 276.40 897.80 L 273.60 893.90 L 271.30 889.70 L 269.40 885.10 L 267.90 880.10 L 266.90 874.80 L 266.50 868.90 L 266.50 862.50 L 267.10 855.60 L 274.10 801.30 L 291.40 789.00 L 322.90 857.80 L 699.90 857.80 L 734.60 789.00 Z" fill="#ffffff" fill-rule="evenodd" group-id="1,2,6,16,27" node-id="364" stroke="none" target-height="139.40002" target-width="489.3" target-x="266.5" target-y="789"></path></g><path d="M 734.60 789.00 L 748.30 799.00 L 752.20 821.50 L 754.20 836.90 L 755.30 849.90 L 755.80 860.70 L 755.70 869.10 L 755.20 876.20 L 754.30 882.40 L 753.10 887.50 L 751.30 892.80 L 749.30 897.30 L 746.90 901.10 L 744.10 904.20 L 741.00 907.00 L 737.40 909.50 L 733.40 911.50 L 729.00 913.10 L 722.80 914.70 L 715.80 915.80 L 699.50 917.20 L 686.30 919.30 L 677.50 921.40 L 657.90 927.20 L 650.80 928.40 L 647.70 928.40 L 644.60 928.00 L 641.40 927.00 L 638.20 925.30 L 613.40 908.40 L 606.40 904.20 L 594.00 897.80 L 585.50 894.40 L 573.10 890.50 L 558.40 887.20 L 541.00 884.90 L 521.60 883.60 L 510.10 883.50 L 495.50 883.70 L 482.20 884.30 L 470.10 885.30 L 458.00 886.70 L 447.10 888.40 L 427.50 892.60 L 410.60 897.50 L 395.60 903.30 L 380.30 910.60 L 362.90 920.80 L 350.40 921.20 L 339.10 921.00 L 328.90 920.30 L 319.90 919.10 L 311.80 917.50 L 304.70 915.60 L 298.30 913.40 L 292.70 910.80 L 287.80 907.90 L 283.50 904.80 L 279.70 901.50 L 276.40 897.80 L 273.60 893.90 L 271.30 889.70 L 269.40 885.10 L 267.90 880.10 L 266.90 874.80 L 266.50 868.90 L 266.50 862.50 L 267.10 855.60 L 274.10 801.30 L 291.40 789.00 L 322.90 857.80 L 699.90 857.80 L 734.60 789.00 Z" fill="#000000" fill-rule="evenodd" filter="url(#filter-14)" group-id="1,2,6,16,28" node-id="369" stroke="none" target-height="139.40002" target-width="489.3" target-x="266.5" target-y="789"></path></g><g node-id="479"><g node-id="491"><path d="M 667.70 653.90 L 667.80 656.10 L 667.50 656.80 L 666.90 656.90 L 665.80 656.30 L 663.50 653.90 L 667.70 653.90 Z M 510.40 562.40 L 528.90 562.70 L 546.10 563.60 L 562.10 565.00 L 576.90 566.90 L 590.70 569.20 L 603.40 572.00 L 615.30 575.20 L 626.20 578.70 L 636.30 582.60 L 645.60 586.80 L 654.20 591.40 L 662.10 596.20 L 669.30 601.30 L 676.00 606.80 L 682.00 612.50 L 687.60 618.60 L 692.60 624.90 L 697.10 631.60 L 701.10 638.60 L 704.60 646.10 L 707.60 653.90 L 667.70 653.90 L 666.60 648.70 L 663.70 639.30 L 662.30 635.90 L 660.60 632.90 L 658.30 629.90 L 655.40 626.90 L 651.80 623.80 L 647.50 620.70 L 642.50 617.70 L 636.60 614.70 L 629.60 611.70 L 621.60 608.70 L 612.40 605.90 L 601.40 603.00 L 588.90 600.30 L 574.70 597.90 L 558.60 595.80 L 543.10 594.30 L 526.00 593.10 L 507.10 592.40 L 486.40 592.10 L 472.30 592.40 L 459.40 593.20 L 447.60 594.50 L 436.90 596.20 L 427.10 598.30 L 418.20 600.80 L 410.20 603.60 L 402.90 606.70 L 396.30 610.10 L 390.40 613.80 L 385.00 617.80 L 380.30 622.00 L 376.00 626.50 L 372.30 631.40 L 369.00 636.50 L 366.20 641.90 L 363.80 647.70 L 361.90 653.90 L 327.40 653.90 L 310.30 647.90 L 314.40 639.50 L 322.40 625.10 L 326.30 619.50 L 330.70 613.80 L 335.50 608.40 L 341.10 603.10 L 347.50 597.80 L 352.60 594.20 L 364.60 587.10 L 371.80 583.70 L 378.80 580.70 L 386.70 577.90 L 395.60 575.10 L 405.50 572.50 L 415.20 570.40 L 425.90 568.40 L 437.80 566.60 L 463.80 564.00 L 493.40 562.60 L 510.40 562.40 Z" fill="#ffffff" fill-rule="evenodd" group-id="1,2,6,17,29" node-id="376" stroke="none" target-height="94.5" target-width="397.3" target-x="310.3" target-y="562.4"></path></g><path d="M 667.70 653.90 L 667.80 656.10 L 667.50 656.80 L 666.90 656.90 L 665.80 656.30 L 663.50 653.90 L 667.70 653.90 Z M 510.40 562.40 L 528.90 562.70 L 546.10 563.60 L 562.10 565.00 L 576.90 566.90 L 590.70 569.20 L 603.40 572.00 L 615.30 575.20 L 626.20 578.70 L 636.30 582.60 L 645.60 586.80 L 654.20 591.40 L 662.10 596.20 L 669.30 601.30 L 676.00 606.80 L 682.00 612.50 L 687.60 618.60 L 692.60 624.90 L 697.10 631.60 L 701.10 638.60 L 704.60 646.10 L 707.60 653.90 L 667.70 653.90 L 666.60 648.70 L 663.70 639.30 L 662.30 635.90 L 660.60 632.90 L 658.30 629.90 L 655.40 626.90 L 651.80 623.80 L 647.50 620.70 L 642.50 617.70 L 636.60 614.70 L 629.60 611.70 L 621.60 608.70 L 612.40 605.90 L 601.40 603.00 L 588.90 600.30 L 574.70 597.90 L 558.60 595.80 L 543.10 594.30 L 526.00 593.10 L 507.10 592.40 L 486.40 592.10 L 472.30 592.40 L 459.40 593.20 L 447.60 594.50 L 436.90 596.20 L 427.10 598.30 L 418.20 600.80 L 410.20 603.60 L 402.90 606.70 L 396.30 610.10 L 390.40 613.80 L 385.00 617.80 L 380.30 622.00 L 376.00 626.50 L 372.30 631.40 L 369.00 636.50 L 366.20 641.90 L 363.80 647.70 L 361.90 653.90 L 327.40 653.90 L 310.30 647.90 L 314.40 639.50 L 322.40 625.10 L 326.30 619.50 L 330.70 613.80 L 335.50 608.40 L 341.10 603.10 L 347.50 597.80 L 352.60 594.20 L 364.60 587.10 L 371.80 583.70 L 378.80 580.70 L 386.70 577.90 L 395.60 575.10 L 405.50 572.50 L 415.20 570.40 L 425.90 568.40 L 437.80 566.60 L 463.80 564.00 L 493.40 562.60 L 510.40 562.40 Z" fill="#000000" fill-rule="evenodd" filter="url(#filter-16)" group-id="1,2,6,17,30" node-id="381" stroke="none" target-height="94.5" target-width="397.3" target-x="310.3" target-y="562.4"></path></g><g node-id="480"><g node-id="493"><path d="M 306.70 655.50 L 314.20 639.80 L 318.40 631.90 L 323.30 623.80 L 326.90 618.60 L 331.00 613.40 L 335.70 608.20 L 340.80 603.30 L 346.60 598.50 L 353.30 593.70 L 358.50 590.50 L 370.70 584.20 L 377.80 581.10 L 392.70 576.00 L 401.40 573.50 L 420.30 569.40 L 442.10 566.10 L 454.60 564.80 L 471.00 563.50 L 489.60 562.70 L 510.40 562.40 L 528.30 562.70 L 544.90 563.50 L 560.40 564.80 L 574.80 566.60 L 588.30 568.80 L 600.80 571.40 L 612.40 574.30 L 623.10 577.70 L 633.10 581.30 L 642.30 585.30 L 650.80 589.50 L 658.70 594.10 L 666.00 598.90 L 672.70 604.00 L 678.80 609.40 L 684.40 615.00 L 689.50 621.00 L 694.20 627.20 L 698.40 633.80 L 702.10 640.60 L 705.40 647.90 L 708.20 655.50 L 718.30 686.00 L 726.90 714.00 L 734.20 739.40 L 740.30 762.60 L 745.20 783.70 L 749.00 802.70 L 751.90 819.90 L 754.00 835.40 L 755.30 849.30 L 755.80 861.80 L 755.80 872.90 L 755.20 882.80 L 754.10 891.60 L 752.60 899.40 L 750.70 906.20 L 748.40 912.30 L 745.80 917.60 L 742.90 922.20 L 739.80 926.20 L 736.30 929.70 L 732.60 932.70 L 728.50 935.20 L 724.10 937.20 L 719.30 938.80 L 714.00 939.90 L 708.20 940.60 L 698.70 940.90 L 690.30 940.80 L 683.00 940.30 L 675.60 939.40 L 669.10 938.20 L 663.30 936.70 L 652.50 932.80 L 640.80 926.90 L 634.40 922.80 L 615.20 909.60 L 603.10 902.30 L 591.70 896.80 L 585.60 894.40 L 571.00 889.90 L 563.20 888.10 L 554.40 886.50 L 544.40 885.20 L 534.30 884.30 L 523.00 883.70 L 510.10 883.50 L 494.00 883.70 L 479.50 884.50 L 466.50 885.70 L 453.50 887.40 L 441.90 889.30 L 431.50 891.60 L 421.10 894.30 L 411.90 897.10 L 403.70 900.00 L 395.50 903.30 L 381.70 909.80 L 372.40 915.00 L 364.30 920.00 L 343.70 933.20 L 337.90 936.40 L 330.00 939.60 L 319.20 941.70 L 312.20 942.50 L 303.00 942.70 L 298.50 942.30 L 294.10 941.50 L 289.90 940.20 L 285.90 938.50 L 280.40 934.80 L 275.40 929.40 L 273.40 926.40 L 271.50 922.80 L 269.70 918.50 L 268.20 913.60 L 266.10 903.20 L 265.40 896.80 L 265.00 889.50 L 265.10 880.00 L 265.70 868.70 L 267.10 855.60 L 275.40 791.30 L 279.70 762.10 L 284.00 736.40 L 287.20 719.70 L 290.50 704.60 L 294.00 691.00 L 297.00 680.80 L 300.10 671.50 L 303.30 663.10 L 306.70 655.50 Z" fill="#000000" fill-rule="evenodd" filter="url(#filter-18)" group-id="1,2,6,18,31" node-id="388" stroke="none" target-height="380.3" target-width="490.8" target-x="265" target-y="562.4"></path></g><path d="M 306.70 655.50 L 314.20 639.80 L 318.40 631.90 L 323.30 623.80 L 326.90 618.60 L 331.00 613.40 L 335.70 608.20 L 340.80 603.30 L 346.60 598.50 L 353.30 593.70 L 358.50 590.50 L 370.70 584.20 L 377.80 581.10 L 392.70 576.00 L 401.40 573.50 L 420.30 569.40 L 442.10 566.10 L 454.60 564.80 L 471.00 563.50 L 489.60 562.70 L 510.40 562.40 L 528.30 562.70 L 544.90 563.50 L 560.40 564.80 L 574.80 566.60 L 588.30 568.80 L 600.80 571.40 L 612.40 574.30 L 623.10 577.70 L 633.10 581.30 L 642.30 585.30 L 650.80 589.50 L 658.70 594.10 L 666.00 598.90 L 672.70 604.00 L 678.80 609.40 L 684.40 615.00 L 689.50 621.00 L 694.20 627.20 L 698.40 633.80 L 702.10 640.60 L 705.40 647.90 L 708.20 655.50 L 718.30 686.00 L 726.90 714.00 L 734.20 739.40 L 740.30 762.60 L 745.20 783.70 L 749.00 802.70 L 751.90 819.90 L 754.00 835.40 L 755.30 849.30 L 755.80 861.80 L 755.80 872.90 L 755.20 882.80 L 754.10 891.60 L 752.60 899.40 L 750.70 906.20 L 748.40 912.30 L 745.80 917.60 L 742.90 922.20 L 739.80 926.20 L 736.30 929.70 L 732.60 932.70 L 728.50 935.20 L 724.10 937.20 L 719.30 938.80 L 714.00 939.90 L 708.20 940.60 L 698.70 940.90 L 690.30 940.80 L 683.00 940.30 L 675.60 939.40 L 669.10 938.20 L 663.30 936.70 L 652.50 932.80 L 640.80 926.90 L 634.40 922.80 L 615.20 909.60 L 603.10 902.30 L 591.70 896.80 L 585.60 894.40 L 571.00 889.90 L 563.20 888.10 L 554.40 886.50 L 544.40 885.20 L 534.30 884.30 L 523.00 883.70 L 510.10 883.50 L 494.00 883.70 L 479.50 884.50 L 466.50 885.70 L 453.50 887.40 L 441.90 889.30 L 431.50 891.60 L 421.10 894.30 L 411.90 897.10 L 403.70 900.00 L 395.50 903.30 L 381.70 909.80 L 372.40 915.00 L 364.30 920.00 L 343.70 933.20 L 337.90 936.40 L 330.00 939.60 L 319.20 941.70 L 312.20 942.50 L 303.00 942.70 L 298.50 942.30 L 294.10 941.50 L 289.90 940.20 L 285.90 938.50 L 280.40 934.80 L 275.40 929.40 L 273.40 926.40 L 271.50 922.80 L 269.70 918.50 L 268.20 913.60 L 266.10 903.20 L 265.40 896.80 L 265.00 889.50 L 265.10 880.00 L 265.70 868.70 L 267.10 855.60 L 275.40 791.30 L 279.70 762.10 L 284.00 736.40 L 287.20 719.70 L 290.50 704.60 L 294.00 691.00 L 297.00 680.80 L 300.10 671.50 L 303.30 663.10 L 306.70 655.50 Z" fill="none" group-id="1,2,6,18,32" node-id="393" stroke="#ac361e" stroke-linecap="butt" stroke-width="17.23671" target-height="380.3" target-width="490.8" target-x="265" target-y="562.4"></path></g></g><g node-id="469"><path d="M 496.00 270.00 L 515.20 269.80 L 533.60 269.10 L 551.10 268.10 L 568.60 266.50 L 585.00 264.50 L 600.20 262.20 L 611.80 260.10 L 622.50 257.80 L 641.60 252.60 L 651.00 249.50 L 659.40 246.20 L 666.80 242.80 L 673.50 239.30 L 678.80 236.00 L 683.50 232.70 L 687.50 229.30 L 691.00 225.90 L 693.90 222.40 L 696.50 218.50 L 698.50 214.60 L 700.00 210.60 L 700.80 206.40 L 701.10 202.00 L 700.80 197.40 L 699.80 192.60 L 698.20 187.70 L 695.80 182.60 L 693.00 177.90 L 689.60 173.00 L 685.40 168.10 L 680.60 163.00 L 675.50 158.40 L 663.60 149.00 L 649.50 140.10 L 633.80 131.80 L 616.20 124.20 L 597.20 117.60 L 576.70 112.00 L 566.00 109.60 L 543.50 105.80 L 532.10 104.40 L 520.40 103.40 L 508.40 102.80 L 496.00 102.60 L 483.60 102.80 L 459.70 104.30 L 448.20 105.50 L 432.80 107.80 L 418.10 110.50 L 404.10 113.60 L 390.20 117.40 L 377.20 121.50 L 365.10 125.90 L 356.00 129.70 L 339.70 137.40 L 325.20 145.90 L 312.70 154.70 L 307.50 159.10 L 302.40 164.00 L 298.10 168.80 L 294.50 173.50 L 291.50 178.10 L 289.50 182.10 L 287.90 186.00 L 286.80 189.80 L 286.20 193.50 L 285.90 197.20 L 286.20 201.50 L 287.10 205.70 L 288.60 209.90 L 290.70 213.90 L 293.50 218.00 L 296.60 221.60 L 300.20 225.10 L 304.40 228.70 L 309.30 232.20 L 314.90 235.70 L 321.80 239.50 L 329.50 243.20 L 338.20 246.70 L 347.90 250.20 L 367.60 255.90 L 378.70 258.60 L 390.50 261.00 L 406.10 263.60 L 422.80 265.90 L 440.60 267.70 L 458.30 269.00 L 476.80 269.80 L 496.00 270.00 Z" fill="url(#linearGradient-19)" fill-rule="evenodd" filter="url(#filter-20)" group-id="1,2,7" id="椭圆形" node-id="120" stroke="none" target-height="167.4" target-width="415.19998" target-x="285.9" target-y="102.6"></path></g><g node-id="470"><path d="M 318.80 131.30 L 317.80 129.40 L 316.70 125.40 L 316.80 123.30 L 317.80 119.40 L 320.20 116.00 L 321.90 114.60 L 329.30 109.90 L 336.50 106.00 L 343.60 102.80 L 350.50 100.40 L 357.20 98.60 L 363.90 97.50 L 369.80 97.00 L 375.60 97.00 L 381.40 97.50 L 387.10 98.50 L 392.80 99.90 L 398.60 101.80 L 404.30 104.30 L 410.60 107.60 L 416.80 111.50 L 423.10 116.10 L 429.40 121.50 L 435.80 127.70 L 442.30 134.70 L 443.60 136.50 L 445.00 140.40 L 445.10 144.40 L 443.80 148.30 L 441.10 151.60 L 439.30 152.90 L 437.40 153.80 L 433.40 154.60 L 429.40 153.90 L 425.80 151.90 L 418.10 143.80 L 412.20 138.20 L 406.40 133.50 L 400.90 129.70 L 395.50 126.60 L 390.60 124.40 L 385.80 122.80 L 380.90 121.70 L 376.10 121.10 L 371.20 121.00 L 366.30 121.40 L 361.60 122.20 L 356.70 123.60 L 351.70 125.40 L 346.50 127.80 L 341.10 130.80 L 333.80 135.40 L 330.10 136.40 L 328.20 136.50 L 324.60 135.70 L 321.30 133.90 L 318.80 131.30 Z" fill="#a05400" fill-rule="nonzero" group-id="1,2,8" id="路径-39" node-id="121" stroke="none" target-height="57.600006" target-width="128.4" target-x="316.7" target-y="97"></path></g><g node-id="471"><path d="M 717.40 147.30 L 717.90 145.20 L 717.90 141.00 L 717.30 139.00 L 715.30 135.50 L 712.10 132.90 L 710.10 132.00 L 701.70 129.30 L 693.70 127.40 L 686.10 126.20 L 678.90 125.60 L 671.90 125.70 L 665.20 126.30 L 659.30 127.40 L 653.70 128.90 L 648.30 130.80 L 643.00 133.30 L 637.80 136.10 L 632.80 139.50 L 627.80 143.40 L 622.70 148.10 L 617.60 153.50 L 612.80 159.60 L 608.00 166.50 L 603.40 174.10 L 599.00 182.60 L 598.20 184.60 L 597.80 188.70 L 598.80 192.70 L 601.10 196.10 L 604.60 198.60 L 606.60 199.40 L 608.70 199.70 L 612.80 199.40 L 616.50 197.80 L 619.50 194.90 L 624.80 185.00 L 629.00 178.10 L 633.30 172.10 L 637.70 167.00 L 642.10 162.70 L 646.30 159.30 L 650.60 156.40 L 654.90 154.10 L 659.50 152.30 L 664.10 150.90 L 669.00 150.00 L 673.80 149.60 L 678.80 149.70 L 684.20 150.10 L 689.80 151.10 L 695.80 152.60 L 704.00 155.10 L 707.80 155.20 L 709.70 154.70 L 713.00 153.10 L 715.70 150.50 L 717.40 147.30 Z" fill="#a05400" fill-rule="nonzero" group-id="1,2,9" id="路径" node-id="122" stroke="none" target-height="74.1" target-width="120.10004" target-x="597.8" target-y="125.6"></path></g><g node-id="472"><g node-id="481"><g node-id="495"><path d="M 535.70 336.00 L 535.40 346.20 L 534.60 356.20 L 533.20 365.90 L 531.40 375.50 L 529.10 384.80 L 526.30 394.10 L 523.00 403.10 L 519.30 411.90 L 515.20 420.40 L 510.60 428.70 L 505.60 436.80 L 500.20 444.50 L 494.50 451.90 L 488.40 459.00 L 481.90 465.90 L 475.00 472.40 L 467.90 478.50 L 460.50 484.20 L 452.80 489.60 L 444.70 494.60 L 436.40 499.20 L 427.90 503.30 L 419.10 507.00 L 410.10 510.30 L 400.80 513.10 L 391.50 515.40 L 381.90 517.20 L 372.20 518.60 L 362.20 519.40 L 352.00 519.70 L 341.80 519.40 L 331.80 518.60 L 322.10 517.20 L 312.50 515.40 L 303.20 513.10 L 293.90 510.30 L 284.90 507.00 L 276.10 503.30 L 267.60 499.20 L 259.30 494.60 L 251.20 489.60 L 243.50 484.20 L 236.10 478.50 L 229.00 472.40 L 222.10 465.90 L 215.60 459.00 L 209.50 451.90 L 203.80 444.50 L 198.40 436.80 L 193.40 428.70 L 188.80 420.40 L 184.70 411.90 L 181.00 403.10 L 177.70 394.10 L 174.90 384.80 L 172.60 375.50 L 170.80 365.90 L 169.40 356.20 L 168.60 346.20 L 168.30 336.00 L 168.60 325.80 L 169.40 315.80 L 170.80 306.10 L 172.60 296.50 L 174.90 287.20 L 177.70 277.90 L 181.00 268.90 L 184.70 260.10 L 188.80 251.60 L 193.40 243.30 L 198.40 235.20 L 203.80 227.50 L 209.50 220.10 L 215.60 213.00 L 222.10 206.10 L 229.00 199.60 L 236.10 193.50 L 243.50 187.80 L 251.20 182.40 L 259.30 177.40 L 267.60 172.80 L 276.10 168.70 L 284.90 165.00 L 293.90 161.70 L 303.20 158.90 L 312.50 156.60 L 322.10 154.80 L 331.80 153.40 L 341.80 152.60 L 352.00 152.30 L 362.20 152.60 L 372.20 153.40 L 381.90 154.80 L 391.50 156.60 L 400.80 158.90 L 410.10 161.70 L 419.10 165.00 L 427.90 168.70 L 436.40 172.80 L 444.70 177.40 L 452.80 182.40 L 460.50 187.80 L 467.90 193.50 L 475.00 199.60 L 481.90 206.10 L 488.40 213.00 L 494.50 220.10 L 500.20 227.50 L 505.60 235.20 L 510.60 243.30 L 515.20 251.60 L 519.30 260.10 L 523.00 268.90 L 526.30 277.90 L 529.10 287.20 L 531.40 296.50 L 533.20 306.10 L 534.60 315.80 L 535.40 325.80 L 535.70 336.00 Z" fill="#000000" fill-rule="evenodd" filter="url(#filter-23)" group-id="1,2,10,19,33" node-id="414" stroke="none" target-height="367.40002" target-width="367.40002" target-x="168.3" target-y="152.3"></path></g><path d="M 535.70 336.00 L 535.40 346.20 L 534.60 356.20 L 533.20 365.90 L 531.40 375.50 L 529.10 384.80 L 526.30 394.10 L 523.00 403.10 L 519.30 411.90 L 515.20 420.40 L 510.60 428.70 L 505.60 436.80 L 500.20 444.50 L 494.50 451.90 L 488.40 459.00 L 481.90 465.90 L 475.00 472.40 L 467.90 478.50 L 460.50 484.20 L 452.80 489.60 L 444.70 494.60 L 436.40 499.20 L 427.90 503.30 L 419.10 507.00 L 410.10 510.30 L 400.80 513.10 L 391.50 515.40 L 381.90 517.20 L 372.20 518.60 L 362.20 519.40 L 352.00 519.70 L 341.80 519.40 L 331.80 518.60 L 322.10 517.20 L 312.50 515.40 L 303.20 513.10 L 293.90 510.30 L 284.90 507.00 L 276.10 503.30 L 267.60 499.20 L 259.30 494.60 L 251.20 489.60 L 243.50 484.20 L 236.10 478.50 L 229.00 472.40 L 222.10 465.90 L 215.60 459.00 L 209.50 451.90 L 203.80 444.50 L 198.40 436.80 L 193.40 428.70 L 188.80 420.40 L 184.70 411.90 L 181.00 403.10 L 177.70 394.10 L 174.90 384.80 L 172.60 375.50 L 170.80 365.90 L 169.40 356.20 L 168.60 346.20 L 168.30 336.00 L 168.60 325.80 L 169.40 315.80 L 170.80 306.10 L 172.60 296.50 L 174.90 287.20 L 177.70 277.90 L 181.00 268.90 L 184.70 260.10 L 188.80 251.60 L 193.40 243.30 L 198.40 235.20 L 203.80 227.50 L 209.50 220.10 L 215.60 213.00 L 222.10 206.10 L 229.00 199.60 L 236.10 193.50 L 243.50 187.80 L 251.20 182.40 L 259.30 177.40 L 267.60 172.80 L 276.10 168.70 L 284.90 165.00 L 293.90 161.70 L 303.20 158.90 L 312.50 156.60 L 322.10 154.80 L 331.80 153.40 L 341.80 152.60 L 352.00 152.30 L 362.20 152.60 L 372.20 153.40 L 381.90 154.80 L 391.50 156.60 L 400.80 158.90 L 410.10 161.70 L 419.10 165.00 L 427.90 168.70 L 436.40 172.80 L 444.70 177.40 L 452.80 182.40 L 460.50 187.80 L 467.90 193.50 L 475.00 199.60 L 481.90 206.10 L 488.40 213.00 L 494.50 220.10 L 500.20 227.50 L 505.60 235.20 L 510.60 243.30 L 515.20 251.60 L 519.30 260.10 L 523.00 268.90 L 526.30 277.90 L 529.10 287.20 L 531.40 296.50 L 533.20 306.10 L 534.60 315.80 L 535.40 325.80 L 535.70 336.00 Z" fill="url(#linearGradient1)" fill-rule="evenodd" group-id="1,2,10,19,34" node-id="419" stroke="none" target-height="367.40002" target-width="367.40002" target-x="168.3" target-y="152.3"></path></g><path d="M 352.00 144.00 L 342.90 144.20 L 333.90 144.80 L 325.10 145.90 L 316.50 147.30 L 308.00 149.10 L 297.40 151.90 L 287.20 155.20 L 277.20 159.10 L 267.60 163.50 L 258.10 168.50 L 249.10 173.90 L 240.30 179.80 L 231.90 186.20 L 223.90 193.00 L 216.20 200.20 L 209.00 207.90 L 202.20 215.90 L 195.80 224.30 L 189.90 233.10 L 184.50 242.10 L 179.50 251.60 L 175.10 261.20 L 171.20 271.20 L 167.90 281.40 L 165.10 292.00 L 163.30 300.50 L 161.90 309.10 L 160.80 317.90 L 160.20 326.90 L 160.00 336.00 L 160.20 345.10 L 160.80 354.10 L 161.90 362.90 L 163.30 371.50 L 165.10 380.00 L 167.90 390.60 L 171.20 400.80 L 175.10 410.80 L 179.50 420.40 L 184.50 429.90 L 189.90 438.90 L 195.80 447.70 L 202.20 456.10 L 209.00 464.10 L 216.20 471.80 L 223.90 479.00 L 231.90 485.80 L 240.30 492.20 L 249.10 498.10 L 258.10 503.50 L 267.60 508.50 L 277.20 512.90 L 287.20 516.80 L 297.40 520.10 L 308.00 522.90 L 316.50 524.70 L 325.10 526.10 L 333.90 527.20 L 342.90 527.80 L 352.00 528.00 L 361.10 527.80 L 370.10 527.20 L 378.90 526.10 L 387.50 524.70 L 396.00 522.90 L 406.60 520.10 L 416.80 516.80 L 426.80 512.90 L 436.40 508.50 L 445.90 503.50 L 454.90 498.10 L 463.70 492.20 L 472.10 485.80 L 480.10 479.00 L 487.80 471.80 L 495.00 464.10 L 501.80 456.10 L 508.20 447.70 L 514.10 438.90 L 519.50 429.90 L 524.50 420.40 L 528.90 410.80 L 532.80 400.80 L 536.10 390.60 L 538.90 380.00 L 540.70 371.50 L 542.10 362.90 L 543.20 354.10 L 543.80 345.10 L 544.00 336.00 L 543.80 326.90 L 543.20 317.90 L 542.10 309.10 L 540.70 300.50 L 538.90 292.00 L 536.10 281.40 L 532.80 271.20 L 528.90 261.20 L 524.50 251.60 L 519.50 242.10 L 514.10 233.10 L 508.20 224.30 L 501.80 215.90 L 495.00 207.90 L 487.80 200.20 L 480.10 193.00 L 472.10 186.20 L 463.70 179.80 L 454.90 173.90 L 445.90 168.50 L 436.40 163.50 L 426.80 159.10 L 416.80 155.20 L 406.60 151.90 L 396.00 149.10 L 387.50 147.30 L 378.90 145.90 L 370.10 144.80 L 361.10 144.20 L 352.00 144.00 Z M 352.00 152.30 L 362.20 152.60 L 372.20 153.40 L 381.90 154.80 L 391.50 156.60 L 400.80 158.90 L 410.10 161.70 L 419.10 165.00 L 427.90 168.70 L 436.40 172.80 L 444.70 177.40 L 452.80 182.40 L 460.50 187.80 L 467.90 193.50 L 475.00 199.60 L 481.90 206.10 L 488.40 213.00 L 494.50 220.10 L 500.20 227.50 L 505.60 235.20 L 510.60 243.30 L 515.20 251.60 L 519.30 260.10 L 523.00 268.90 L 526.30 277.90 L 529.10 287.20 L 531.40 296.50 L 533.20 306.10 L 534.60 315.80 L 535.40 325.80 L 535.70 336.00 L 535.40 346.20 L 534.60 356.20 L 533.20 365.90 L 531.40 375.50 L 529.10 384.80 L 526.30 394.10 L 523.00 403.10 L 519.30 411.90 L 515.20 420.40 L 510.60 428.70 L 505.60 436.80 L 500.20 444.50 L 494.50 451.90 L 488.40 459.00 L 481.90 465.90 L 475.00 472.40 L 467.90 478.50 L 460.50 484.20 L 452.80 489.60 L 444.70 494.60 L 436.40 499.20 L 427.90 503.30 L 419.10 507.00 L 410.10 510.30 L 400.80 513.10 L 391.50 515.40 L 381.90 517.20 L 372.20 518.60 L 362.20 519.40 L 352.00 519.70 L 341.80 519.40 L 331.80 518.60 L 322.10 517.20 L 312.50 515.40 L 303.20 513.10 L 293.90 510.30 L 284.90 507.00 L 276.10 503.30 L 267.60 499.20 L 259.30 494.60 L 251.20 489.60 L 243.50 484.20 L 236.10 478.50 L 229.00 472.40 L 222.10 465.90 L 215.60 459.00 L 209.50 451.90 L 203.80 444.50 L 198.40 436.80 L 193.40 428.70 L 188.80 420.40 L 184.70 411.90 L 181.00 403.10 L 177.70 394.10 L 174.90 384.80 L 172.60 375.50 L 170.80 365.90 L 169.40 356.20 L 168.60 346.20 L 168.30 336.00 L 168.60 325.80 L 169.40 315.80 L 170.80 306.10 L 172.60 296.50 L 174.90 287.20 L 177.70 277.90 L 181.00 268.90 L 184.70 260.10 L 188.80 251.60 L 193.40 243.30 L 198.40 235.20 L 203.80 227.50 L 209.50 220.10 L 215.60 213.00 L 222.10 206.10 L 229.00 199.60 L 236.10 193.50 L 243.50 187.80 L 251.20 182.40 L 259.30 177.40 L 267.60 172.80 L 276.10 168.70 L 284.90 165.00 L 293.90 161.70 L 303.20 158.90 L 312.50 156.60 L 322.10 154.80 L 331.80 153.40 L 341.80 152.60 L 352.00 152.30 Z" fill="#d0a478" fill-rule="nonzero" group-id="1,2,10" id="椭圆形" node-id="127" stroke="none" target-height="384" target-width="384" target-x="160" target-y="144"></path><g node-id="482"><g node-id="497"><path d="M 402.10 336.00 L 401.80 341.20 L 401.10 346.20 L 399.80 350.90 L 398.20 355.50 L 396.00 359.90 L 393.50 364.00 L 390.70 367.80 L 387.40 371.40 L 383.80 374.70 L 380.00 377.50 L 375.90 380.00 L 371.50 382.20 L 366.90 383.80 L 362.20 385.10 L 357.20 385.80 L 352.00 386.10 L 346.80 385.80 L 341.80 385.10 L 337.10 383.80 L 332.50 382.20 L 328.10 380.00 L 324.00 377.50 L 320.20 374.70 L 316.60 371.40 L 313.30 367.80 L 310.50 364.00 L 308.00 359.90 L 305.80 355.50 L 304.20 350.90 L 302.90 346.20 L 302.20 341.20 L 301.90 336.00 L 302.20 330.80 L 302.90 325.80 L 304.20 321.10 L 305.80 316.50 L 308.00 312.10 L 310.50 308.00 L 313.30 304.20 L 316.60 300.60 L 320.20 297.30 L 324.00 294.50 L 328.10 292.00 L 332.50 289.80 L 337.10 288.20 L 341.80 286.90 L 346.80 286.20 L 352.00 285.90 L 357.20 286.20 L 362.20 286.90 L 366.90 288.20 L 371.50 289.80 L 375.90 292.00 L 380.00 294.50 L 383.80 297.30 L 387.40 300.60 L 390.70 304.20 L 393.50 308.00 L 396.00 312.10 L 398.20 316.50 L 399.80 321.10 L 401.10 325.80 L 401.80 330.80 L 402.10 336.00 Z" fill="#930027" fill-rule="evenodd" group-id="1,2,10,20,35" node-id="427" stroke="none" target-height="100.20001" target-width="100.20001" target-x="301.9" target-y="285.9"></path></g><path d="M 402.10 336.00 L 401.80 341.20 L 401.10 346.20 L 399.80 350.90 L 398.20 355.50 L 396.00 359.90 L 393.50 364.00 L 390.70 367.80 L 387.40 371.40 L 383.80 374.70 L 380.00 377.50 L 375.90 380.00 L 371.50 382.20 L 366.90 383.80 L 362.20 385.10 L 357.20 385.80 L 352.00 386.10 L 346.80 385.80 L 341.80 385.10 L 337.10 383.80 L 332.50 382.20 L 328.10 380.00 L 324.00 377.50 L 320.20 374.70 L 316.60 371.40 L 313.30 367.80 L 310.50 364.00 L 308.00 359.90 L 305.80 355.50 L 304.20 350.90 L 302.90 346.20 L 302.20 341.20 L 301.90 336.00 L 302.20 330.80 L 302.90 325.80 L 304.20 321.10 L 305.80 316.50 L 308.00 312.10 L 310.50 308.00 L 313.30 304.20 L 316.60 300.60 L 320.20 297.30 L 324.00 294.50 L 328.10 292.00 L 332.50 289.80 L 337.10 288.20 L 341.80 286.90 L 346.80 286.20 L 352.00 285.90 L 357.20 286.20 L 362.20 286.90 L 366.90 288.20 L 371.50 289.80 L 375.90 292.00 L 380.00 294.50 L 383.80 297.30 L 387.40 300.60 L 390.70 304.20 L 393.50 308.00 L 396.00 312.10 L 398.20 316.50 L 399.80 321.10 L 401.10 325.80 L 401.80 330.80 L 402.10 336.00 Z" fill="#000000" fill-rule="evenodd" filter="url(#filter-25)" group-id="1,2,10,20,36" node-id="432" stroke="none" target-height="100.20001" target-width="100.20001" target-x="301.9" target-y="285.9"></path></g><path d="M 385.40 336.00 L 385.10 340.60 L 384.20 344.90 L 382.80 349.00 L 380.80 352.90 L 378.40 356.40 L 375.60 359.60 L 372.40 362.40 L 368.90 364.80 L 365.00 366.80 L 360.90 368.20 L 356.60 369.10 L 352.00 369.40 L 347.40 369.10 L 343.10 368.20 L 339.00 366.80 L 335.10 364.80 L 331.60 362.40 L 328.40 359.60 L 325.60 356.40 L 323.20 352.90 L 321.20 349.00 L 319.80 344.90 L 318.90 340.60 L 318.60 336.00 L 318.90 331.40 L 319.80 327.10 L 321.20 323.00 L 323.20 319.10 L 325.60 315.60 L 328.40 312.40 L 331.60 309.60 L 335.10 307.20 L 339.00 305.20 L 343.10 303.80 L 347.40 302.90 L 352.00 302.60 L 356.60 302.90 L 360.90 303.80 L 365.00 305.20 L 368.90 307.20 L 372.40 309.60 L 375.60 312.40 L 378.40 315.60 L 380.80 319.10 L 382.80 323.00 L 384.20 327.10 L 385.10 331.40 L 385.40 336.00 Z" fill="#301502" fill-rule="evenodd" group-id="1,2,10" id="椭圆形" node-id="131" stroke="none" target-height="66.79999" target-width="66.79999" target-x="318.6" target-y="302.6"></path></g><g node-id="473"><g node-id="483"><g node-id="499"><path d="M 816.00 334.60 L 815.70 342.90 L 814.90 351.00 L 813.60 358.80 L 811.70 366.50 L 809.40 374.10 L 806.60 381.40 L 803.30 388.40 L 799.60 395.20 L 795.50 401.70 L 791.00 408.00 L 786.10 413.90 L 780.90 419.50 L 775.20 424.70 L 769.30 429.60 L 763.10 434.10 L 756.60 438.20 L 749.80 441.90 L 742.70 445.20 L 735.50 448.00 L 727.90 450.30 L 720.20 452.20 L 712.40 453.50 L 704.30 454.30 L 696.00 454.60 L 687.70 454.30 L 679.60 453.50 L 671.80 452.20 L 664.10 450.30 L 656.50 448.00 L 649.30 445.20 L 642.20 441.90 L 635.40 438.20 L 628.90 434.10 L 622.70 429.60 L 616.80 424.70 L 611.10 419.50 L 605.90 413.90 L 601.00 408.00 L 596.50 401.70 L 592.40 395.20 L 588.70 388.40 L 585.40 381.40 L 582.60 374.10 L 580.30 366.50 L 578.40 358.80 L 577.10 351.00 L 576.30 342.90 L 576.00 334.60 L 576.30 326.30 L 577.10 318.20 L 578.40 310.40 L 580.30 302.70 L 582.60 295.20 L 585.40 287.90 L 588.70 280.80 L 592.40 274.00 L 596.50 267.50 L 601.00 261.30 L 605.90 255.40 L 611.10 249.80 L 616.80 244.50 L 622.70 239.60 L 628.90 235.10 L 635.40 231.00 L 642.20 227.30 L 649.30 224.10 L 656.50 221.30 L 664.10 218.90 L 671.80 217.10 L 679.60 215.70 L 687.70 214.90 L 696.00 214.60 L 704.30 214.90 L 712.40 215.70 L 720.20 217.10 L 727.90 218.90 L 735.50 221.30 L 742.70 224.10 L 749.80 227.30 L 756.60 231.00 L 763.10 235.10 L 769.30 239.60 L 775.20 244.50 L 780.90 249.80 L 786.10 255.40 L 791.00 261.30 L 795.50 267.50 L 799.60 274.00 L 803.30 280.80 L 806.60 287.90 L 809.40 295.20 L 811.70 302.70 L 813.60 310.40 L 814.90 318.20 L 815.70 326.30 L 816.00 334.60 Z" fill="#000000" fill-rule="evenodd" filter="url(#filter-27)" group-id="1,2,11,21,37" node-id="442" stroke="none" target-height="240" target-width="240" target-x="576" target-y="214.6"></path></g><path d="M 816.00 334.60 L 815.70 342.90 L 814.90 351.00 L 813.60 358.80 L 811.70 366.50 L 809.40 374.10 L 806.60 381.40 L 803.30 388.40 L 799.60 395.20 L 795.50 401.70 L 791.00 408.00 L 786.10 413.90 L 780.90 419.50 L 775.20 424.70 L 769.30 429.60 L 763.10 434.10 L 756.60 438.20 L 749.80 441.90 L 742.70 445.20 L 735.50 448.00 L 727.90 450.30 L 720.20 452.20 L 712.40 453.50 L 704.30 454.30 L 696.00 454.60 L 687.70 454.30 L 679.60 453.50 L 671.80 452.20 L 664.10 450.30 L 656.50 448.00 L 649.30 445.20 L 642.20 441.90 L 635.40 438.20 L 628.90 434.10 L 622.70 429.60 L 616.80 424.70 L 611.10 419.50 L 605.90 413.90 L 601.00 408.00 L 596.50 401.70 L 592.40 395.20 L 588.70 388.40 L 585.40 381.40 L 582.60 374.10 L 580.30 366.50 L 578.40 358.80 L 577.10 351.00 L 576.30 342.90 L 576.00 334.60 L 576.30 326.30 L 577.10 318.20 L 578.40 310.40 L 580.30 302.70 L 582.60 295.20 L 585.40 287.90 L 588.70 280.80 L 592.40 274.00 L 596.50 267.50 L 601.00 261.30 L 605.90 255.40 L 611.10 249.80 L 616.80 244.50 L 622.70 239.60 L 628.90 235.10 L 635.40 231.00 L 642.20 227.30 L 649.30 224.10 L 656.50 221.30 L 664.10 218.90 L 671.80 217.10 L 679.60 215.70 L 687.70 214.90 L 696.00 214.60 L 704.30 214.90 L 712.40 215.70 L 720.20 217.10 L 727.90 218.90 L 735.50 221.30 L 742.70 224.10 L 749.80 227.30 L 756.60 231.00 L 763.10 235.10 L 769.30 239.60 L 775.20 244.50 L 780.90 249.80 L 786.10 255.40 L 791.00 261.30 L 795.50 267.50 L 799.60 274.00 L 803.30 280.80 L 806.60 287.90 L 809.40 295.20 L 811.70 302.70 L 813.60 310.40 L 814.90 318.20 L 815.70 326.30 L 816.00 334.60 Z" fill="url(#linearGradient-21)" fill-rule="evenodd" group-id="1,2,11,21,38" node-id="447" stroke="none" target-height="240" target-width="240" target-x="576" target-y="214.6"></path></g><path d="M 820.00 334.60 L 819.70 343.20 L 818.90 351.50 L 817.50 359.70 L 815.60 367.60 L 813.10 375.40 L 810.20 382.90 L 806.90 390.20 L 803.10 397.20 L 798.80 404.00 L 794.20 410.40 L 789.10 416.50 L 783.70 422.30 L 777.90 427.70 L 771.80 432.80 L 765.40 437.40 L 758.60 441.70 L 751.60 445.50 L 744.30 448.90 L 736.80 451.70 L 729.00 454.20 L 721.00 456.10 L 712.90 457.50 L 704.60 458.30 L 696.00 458.60 L 687.40 458.30 L 679.10 457.50 L 671.00 456.10 L 663.00 454.20 L 655.20 451.70 L 647.70 448.90 L 640.40 445.50 L 633.40 441.70 L 626.60 437.40 L 620.20 432.80 L 614.10 427.70 L 608.30 422.30 L 602.90 416.50 L 597.80 410.40 L 593.20 404.00 L 588.90 397.20 L 585.10 390.20 L 581.80 382.90 L 578.90 375.40 L 576.40 367.60 L 574.50 359.70 L 573.10 351.50 L 572.30 343.20 L 572.00 334.60 L 572.30 326.00 L 573.10 317.70 L 574.50 309.60 L 576.40 301.70 L 578.90 293.80 L 581.80 286.30 L 585.10 279.00 L 588.90 272.00 L 593.20 265.30 L 597.80 258.80 L 602.90 252.70 L 608.30 246.90 L 614.10 241.50 L 620.20 236.50 L 626.60 231.80 L 633.40 227.50 L 640.40 223.70 L 647.70 220.40 L 655.20 217.50 L 663.00 215.00 L 671.00 213.10 L 679.10 211.80 L 687.40 210.90 L 696.00 210.60 L 704.60 210.90 L 712.90 211.80 L 721.00 213.10 L 729.00 215.00 L 736.80 217.50 L 744.30 220.40 L 751.60 223.70 L 758.60 227.50 L 765.40 231.80 L 771.80 236.50 L 777.90 241.50 L 783.70 246.90 L 789.10 252.70 L 794.20 258.80 L 798.80 265.30 L 803.10 272.00 L 806.90 279.00 L 810.20 286.30 L 813.10 293.80 L 815.60 301.70 L 817.50 309.60 L 818.90 317.70 L 819.70 326.00 L 820.00 334.60 Z" fill="none" group-id="1,2,11" id="椭圆形" node-id="136" stroke="#d0a478" stroke-linecap="butt" stroke-width="8" target-height="248" target-width="248" target-x="572" target-y="210.6"></path><g node-id="484"><g node-id="501"><g node-id="502"><path d="M 736.00 334.60 L 735.20 342.70 L 732.90 350.20 L 729.20 357.00 L 724.30 362.90 L 718.40 367.80 L 711.60 371.50 L 707.90 372.80 L 704.10 373.80 L 700.20 374.40 L 696.00 374.60 L 691.80 374.40 L 684.10 372.80 L 676.90 369.80 L 670.60 365.50 L 665.10 360.00 L 660.80 353.70 L 657.80 346.50 L 656.20 338.80 L 656.00 334.60 L 656.20 330.50 L 657.80 322.70 L 660.80 315.50 L 665.10 309.20 L 670.60 303.70 L 673.60 301.50 L 680.40 297.80 L 687.90 295.40 L 696.00 294.60 L 704.10 295.40 L 711.60 297.80 L 718.40 301.50 L 724.30 306.30 L 729.20 312.20 L 732.90 319.00 L 735.20 326.50 L 736.00 334.60 Z" fill="#930027" fill-rule="evenodd" group-id="1,2,11,22,39,40" node-id="456" stroke="none" target-height="80" target-width="80" target-x="656" target-y="294.6"></path></g><path d="M 736.00 334.60 L 735.20 342.70 L 732.90 350.20 L 729.20 357.00 L 724.30 362.90 L 718.40 367.80 L 711.60 371.50 L 707.90 372.80 L 704.10 373.80 L 700.20 374.40 L 696.00 374.60 L 691.80 374.40 L 684.10 372.80 L 676.90 369.80 L 670.60 365.50 L 665.10 360.00 L 660.80 353.70 L 657.80 346.50 L 656.20 338.80 L 656.00 334.60 L 656.20 330.50 L 657.80 322.70 L 660.80 315.50 L 665.10 309.20 L 670.60 303.70 L 673.60 301.50 L 680.40 297.80 L 687.90 295.40 L 696.00 294.60 L 704.10 295.40 L 711.60 297.80 L 718.40 301.50 L 724.30 306.30 L 729.20 312.20 L 732.90 319.00 L 735.20 326.50 L 736.00 334.60 Z" fill="#000000" fill-rule="evenodd" filter="url(#filter-29)" group-id="1,2,11,22,39,41" node-id="461" stroke="none" target-height="80" target-width="80" target-x="656" target-y="294.6"></path></g><path d="M 716.00 334.60 L 715.70 338.30 L 714.70 341.60 L 713.30 344.70 L 711.30 347.50 L 708.90 349.90 L 706.10 351.90 L 703.00 353.40 L 699.70 354.30 L 696.00 354.60 L 692.30 354.30 L 689.00 353.40 L 685.90 351.90 L 683.10 349.90 L 680.70 347.50 L 678.70 344.70 L 677.30 341.60 L 676.30 338.30 L 676.00 334.60 L 676.30 331.00 L 677.30 327.60 L 678.70 324.50 L 680.70 321.70 L 683.10 319.30 L 685.90 317.30 L 689.00 315.90 L 692.30 315.00 L 696.00 314.60 L 699.70 315.00 L 703.00 315.90 L 706.10 317.30 L 708.90 319.30 L 711.30 321.70 L 713.30 324.50 L 714.70 327.60 L 715.70 331.00 L 716.00 334.60 Z" fill="#301502" fill-rule="evenodd" group-id="1,2,11,22" id="椭圆形" node-id="141" stroke="none" target-height="40" target-width="40" target-x="676" target-y="314.6"></path></g></g></g></g></svg>