<?xml version="1.0" standalone="no"?><!DOCTYPE svg PUBLIC "-//W3C//DTD SVG 1.1//EN" "http://www.w3.org/Graphics/SVG/1.1/DTD/svg11.dtd"><svg height="1024" node-id="1" sillyvg="true" template-height="1024" template-width="1024" version="1.1" viewBox="0 0 1024 1024" width="1024" xmlns="http://www.w3.org/2000/svg" xmlns:xlink="http://www.w3.org/1999/xlink"><defs node-id="381"><linearGradient gradientUnits="objectBoundingBox" id="SVGID_00000090979224477099529080000002210680723106237107_" node-id="250" spreadMethod="pad" x1="512" x2="512" y1="935.691" y2="52.4064"><stop offset="0" stop-color="#f29d0b"></stop><stop offset="0.5307" stop-color="#fef3a7"></stop><stop offset="1" stop-color="#fde48a"></stop></linearGradient><linearGradient gradientUnits="objectBoundingBox" id="SVGID_00000166660335720063525600000000286449617843877534_" node-id="263" spreadMethod="pad" x1="509.2846" x2="509.2846" y1="545.5946" y2="846.0648"><stop offset="0" stop-color="#5c351e"></stop><stop offset="1" stop-color="#291509"></stop></linearGradient><linearGradient gradientUnits="objectBoundingBox" id="SVGID_00000022559957614021939520000012820507304020226190_" node-id="267" spreadMethod="pad" x1="508.7711" x2="508.7711" y1="711.7043" y2="846.0648"><stop offset="0" stop-color="#e05e65"></stop><stop offset="1" stop-color="#c5272d"></stop></linearGradient><linearGradient gradientUnits="objectBoundingBox" id="SVGID_00000098926353178729601730000010327430034107371950_" node-id="272" spreadMethod="pad" x1="672.9037" x2="672.9037" y1="747.0626" y2="935.2653"><stop offset="0" stop-color="#97e6fc"></stop><stop offset="1" stop-color="#00bcf2"></stop></linearGradient><radialGradient cx="344.0112" cy="312.2856" fx="344.0112" fy="312.2856" gradientUnits="objectBoundingBox" id="SVGID_00000073699593423520793440000006737761398145822862_" node-id="255" r="195.1343" rev="2" spreadMethod="pad"><stop offset="0" stop-color="#ff7b69"></stop><stop offset="0.5479" stop-color="#d4341f"></stop></radialGradient><radialGradient cx="310.7941" cy="308.1124" fx="310.7941" fy="308.1124" gradientUnits="objectBoundingBox" id="SVGID_00000148644214979278998390000006872390306167097224_" node-id="259" r="182.9031" rev="1" spreadMethod="pad"><stop offset="0" stop-color="#ff7b69"></stop><stop offset="0.5479" stop-color="#d4341f"></stop></radialGradient></defs><path d="M 953.60 512.00 L 953.40 526.10 L 952.70 540.10 L 951.60 554.00 L 950.10 567.80 L 948.10 581.50 L 945.70 595.20 L 942.90 608.70 L 939.70 622.20 L 936.00 635.50 L 932.00 648.70 L 927.50 661.70 L 922.60 674.60 L 917.30 687.30 L 911.70 699.90 L 905.60 712.30 L 899.10 724.50 L 892.30 736.50 L 885.10 748.30 L 877.50 759.90 L 869.50 771.20 L 861.20 782.40 L 852.50 793.20 L 843.50 803.80 L 834.10 814.20 L 824.30 824.30 L 814.20 834.10 L 803.80 843.50 L 793.20 852.50 L 782.40 861.20 L 771.20 869.50 L 759.90 877.50 L 748.30 885.10 L 736.50 892.30 L 724.50 899.10 L 712.30 905.60 L 699.90 911.70 L 687.30 917.30 L 674.60 922.60 L 661.70 927.50 L 648.70 932.00 L 635.50 936.00 L 622.20 939.70 L 608.70 942.90 L 595.20 945.70 L 581.50 948.10 L 567.80 950.10 L 554.00 951.60 L 540.10 952.70 L 526.10 953.40 L 512.00 953.60 L 497.90 953.40 L 483.90 952.70 L 470.00 951.60 L 456.20 950.10 L 442.50 948.10 L 428.80 945.70 L 415.30 942.90 L 401.80 939.70 L 388.50 936.00 L 375.30 932.00 L 362.30 927.50 L 349.40 922.60 L 336.70 917.30 L 324.10 911.70 L 311.70 905.60 L 299.50 899.10 L 287.50 892.30 L 275.70 885.10 L 264.10 877.50 L 252.80 869.50 L 241.60 861.20 L 230.80 852.50 L 220.20 843.50 L 209.80 834.10 L 199.70 824.30 L 189.90 814.20 L 180.50 803.80 L 171.50 793.20 L 162.80 782.40 L 154.50 771.20 L 146.50 759.90 L 138.90 748.30 L 131.70 736.50 L 124.90 724.50 L 118.40 712.30 L 112.30 699.90 L 106.70 687.30 L 101.40 674.60 L 96.50 661.70 L 92.00 648.70 L 88.00 635.50 L 84.30 622.20 L 81.10 608.70 L 78.30 595.20 L 75.90 581.50 L 73.90 567.80 L 72.40 554.00 L 71.30 540.10 L 70.60 526.10 L 70.40 512.00 L 70.60 497.90 L 71.30 483.90 L 72.40 470.00 L 73.90 456.20 L 75.90 442.50 L 78.30 428.80 L 81.10 415.30 L 84.30 401.80 L 88.00 388.50 L 92.00 375.30 L 96.50 362.30 L 101.40 349.40 L 106.70 336.70 L 112.30 324.10 L 118.40 311.70 L 124.90 299.50 L 131.70 287.50 L 138.90 275.70 L 146.50 264.10 L 154.50 252.80 L 162.80 241.60 L 171.50 230.80 L 180.50 220.20 L 189.90 209.80 L 199.70 199.70 L 209.80 189.90 L 220.20 180.50 L 230.80 171.50 L 241.60 162.80 L 252.80 154.50 L 264.10 146.50 L 275.70 138.90 L 287.50 131.70 L 299.50 124.90 L 311.70 118.40 L 324.10 112.30 L 336.70 106.70 L 349.40 101.40 L 362.30 96.50 L 375.30 92.00 L 388.50 88.00 L 401.80 84.30 L 415.30 81.10 L 428.80 78.30 L 442.50 75.90 L 456.20 73.90 L 470.00 72.40 L 483.90 71.30 L 497.90 70.60 L 512.00 70.40 L 526.10 70.60 L 540.10 71.30 L 554.00 72.40 L 567.80 73.90 L 581.50 75.90 L 595.20 78.30 L 608.70 81.10 L 622.20 84.30 L 635.50 88.00 L 648.70 92.00 L 661.70 96.50 L 674.60 101.40 L 687.30 106.70 L 699.90 112.30 L 712.30 118.40 L 724.50 124.90 L 736.50 131.70 L 748.30 138.90 L 759.90 146.50 L 771.20 154.50 L 782.40 162.80 L 793.20 171.50 L 803.80 180.50 L 814.20 189.90 L 824.30 199.70 L 834.10 209.80 L 843.50 220.20 L 852.50 230.80 L 861.20 241.60 L 869.50 252.80 L 877.50 264.10 L 885.10 275.70 L 892.30 287.50 L 899.10 299.50 L 905.60 311.70 L 911.70 324.10 L 917.30 336.70 L 922.60 349.40 L 927.50 362.30 L 932.00 375.30 L 936.00 388.50 L 939.70 401.80 L 942.90 415.30 L 945.70 428.80 L 948.10 442.50 L 950.10 456.20 L 951.60 470.00 L 952.70 483.90 L 953.40 497.90 L 953.60 512.00 Z" fill="url(#SVGID_00000090979224477099529080000002210680723106237107_)" fill-rule="nonzero" node-id="423" stroke="none" target-height="883.19995" target-width="883.19995" target-x="70.4" target-y="70.4"></path><path d="M 469.90 246.30 L 466.90 238.30 L 463.80 231.30 L 460.60 225.20 L 457.20 220.00 L 453.40 214.80 L 449.50 210.40 L 445.60 206.70 L 441.50 203.60 L 437.20 200.90 L 432.80 198.70 L 428.30 196.90 L 423.80 195.60 L 414.40 194.30 L 404.80 194.40 L 398.40 195.20 L 392.10 196.40 L 385.70 198.20 L 379.40 200.30 L 367.20 205.40 L 358.40 209.90 L 350.40 214.50 L 334.00 225.10 L 331.80 225.80 L 329.60 226.00 L 327.40 225.80 L 325.20 225.10 L 308.80 214.50 L 300.80 209.90 L 292.00 205.40 L 279.80 200.30 L 273.50 198.20 L 267.10 196.40 L 260.80 195.20 L 254.40 194.40 L 244.80 194.30 L 235.40 195.60 L 230.90 196.90 L 226.40 198.70 L 222.00 200.90 L 217.70 203.60 L 213.60 206.70 L 209.70 210.40 L 205.80 214.80 L 202.00 220.00 L 198.60 225.20 L 195.40 231.30 L 192.30 238.30 L 189.30 246.30 L 187.10 253.70 L 185.60 261.00 L 184.70 268.30 L 184.50 275.50 L 184.80 282.80 L 185.60 290.00 L 187.00 297.10 L 188.90 304.30 L 193.90 318.20 L 197.00 325.20 L 200.50 332.00 L 205.70 340.90 L 211.40 349.70 L 217.60 358.20 L 231.00 374.60 L 238.10 382.40 L 252.90 397.20 L 271.50 413.80 L 282.20 422.50 L 301.90 437.50 L 306.30 440.30 L 310.70 442.50 L 315.30 444.30 L 320.00 445.50 L 324.80 446.30 L 329.60 446.50 L 334.40 446.30 L 339.20 445.50 L 343.90 444.30 L 348.50 442.50 L 352.90 440.30 L 357.30 437.50 L 377.00 422.50 L 387.70 413.80 L 398.90 404.00 L 413.70 390.00 L 428.20 374.60 L 441.60 358.20 L 447.80 349.70 L 453.50 340.90 L 458.70 332.00 L 462.20 325.20 L 468.00 311.30 L 470.30 304.30 L 472.20 297.10 L 473.60 290.00 L 474.40 282.80 L 474.70 275.50 L 474.50 268.30 L 473.60 261.00 L 472.10 253.70 L 469.90 246.30 Z" fill="url(#SVGID_00000073699593423520793440000006737761398145822862_)" fill-rule="nonzero" node-id="425" stroke="none" target-height="252.2" target-width="290.2" target-x="184.5" target-y="194.3"></path><path d="M 554.10 246.30 L 557.10 238.30 L 560.20 231.30 L 563.40 225.20 L 566.80 220.00 L 570.60 214.80 L 574.50 210.40 L 578.40 206.70 L 582.50 203.60 L 586.80 200.90 L 591.20 198.70 L 595.70 196.90 L 600.20 195.60 L 609.60 194.30 L 619.20 194.40 L 625.60 195.20 L 631.90 196.40 L 638.30 198.20 L 644.60 200.30 L 656.80 205.40 L 665.60 209.90 L 673.60 214.50 L 690.00 225.10 L 692.20 225.80 L 694.40 226.00 L 696.60 225.80 L 698.80 225.10 L 715.20 214.50 L 723.20 209.90 L 732.00 205.40 L 744.20 200.30 L 750.50 198.20 L 756.90 196.40 L 763.20 195.20 L 769.60 194.40 L 779.20 194.30 L 788.60 195.60 L 793.10 196.90 L 797.60 198.70 L 802.00 200.90 L 806.30 203.60 L 810.40 206.70 L 814.30 210.40 L 818.20 214.80 L 822.00 220.00 L 825.40 225.20 L 828.60 231.30 L 831.70 238.30 L 834.70 246.30 L 836.90 253.70 L 838.40 261.00 L 839.30 268.30 L 839.50 275.50 L 839.20 282.80 L 838.40 290.00 L 837.00 297.10 L 835.10 304.30 L 830.10 318.20 L 827.00 325.20 L 823.50 332.00 L 818.30 340.90 L 812.60 349.70 L 806.40 358.20 L 793.00 374.60 L 785.90 382.40 L 771.10 397.20 L 752.50 413.80 L 741.80 422.50 L 722.10 437.50 L 717.70 440.30 L 713.30 442.50 L 708.70 444.30 L 704.00 445.50 L 699.20 446.30 L 694.40 446.50 L 689.60 446.30 L 684.80 445.50 L 680.10 444.30 L 675.50 442.50 L 671.10 440.30 L 666.70 437.50 L 647.00 422.50 L 636.30 413.80 L 625.10 404.00 L 610.30 390.00 L 595.80 374.60 L 582.40 358.20 L 576.20 349.70 L 570.50 340.90 L 565.30 332.00 L 561.80 325.20 L 556.00 311.30 L 553.70 304.30 L 551.80 297.10 L 550.40 290.00 L 549.60 282.80 L 549.30 275.50 L 549.50 268.30 L 550.40 261.00 L 551.90 253.70 L 554.10 246.30 Z" fill="url(#SVGID_00000148644214979278998390000006872390306167097224_)" fill-rule="nonzero" node-id="427" stroke="none" target-height="252.2" target-width="290.2" target-x="549.3" target-y="194.3"></path><path d="M 757.90 623.70 L 747.60 653.30 L 741.60 669.30 L 734.60 686.50 L 729.50 698.00 L 723.90 709.60 L 717.70 721.40 L 711.70 731.90 L 705.10 742.40 L 698.00 752.80 L 686.40 767.70 L 673.40 782.00 L 666.40 788.80 L 659.10 795.30 L 651.30 801.60 L 643.00 807.60 L 634.60 813.20 L 625.60 818.40 L 616.10 823.30 L 606.10 827.90 L 596.00 831.90 L 585.20 835.40 L 573.80 838.60 L 561.80 841.30 L 552.30 842.90 L 542.30 844.20 L 531.80 845.20 L 520.80 845.80 L 509.30 846.10 L 497.70 845.80 L 486.60 845.20 L 476.00 844.20 L 465.90 842.90 L 456.30 841.20 L 444.20 838.40 L 432.70 835.20 L 421.90 831.60 L 411.70 827.60 L 401.60 822.90 L 392.10 817.90 L 383.10 812.60 L 374.60 806.90 L 366.30 800.80 L 358.50 794.40 L 351.10 787.80 L 344.10 780.90 L 337.40 773.70 L 331.10 766.40 L 319.50 751.20 L 312.40 740.70 L 305.80 730.10 L 299.80 719.50 L 293.80 707.90 L 283.40 685.30 L 276.60 668.50 L 270.70 652.70 L 260.70 623.70 L 258.50 616.30 L 257.00 609.70 L 256.10 603.80 L 255.80 598.40 L 255.90 592.90 L 256.60 587.90 L 257.70 583.40 L 259.10 579.30 L 261.10 575.40 L 263.40 571.70 L 266.10 568.50 L 269.10 565.50 L 273.50 561.90 L 278.40 558.80 L 283.80 556.00 L 289.40 553.80 L 295.30 551.80 L 301.50 550.20 L 310.90 548.30 L 320.40 547.10 L 338.90 545.80 L 355.00 545.60 L 663.60 545.60 L 688.60 546.30 L 698.10 547.10 L 707.70 548.30 L 717.10 550.20 L 723.30 551.80 L 729.20 553.80 L 734.80 556.00 L 740.20 558.80 L 745.10 561.90 L 749.50 565.50 L 752.50 568.50 L 755.20 571.70 L 757.50 575.40 L 759.40 579.30 L 760.90 583.40 L 762.00 587.90 L 762.60 592.90 L 762.80 598.40 L 762.50 603.80 L 761.60 609.70 L 760.10 616.30 L 757.90 623.70 Z" fill="url(#SVGID_00000166660335720063525600000000286449617843877534_)" fill-rule="nonzero" node-id="429" stroke="none" target-height="300.5" target-width="507" target-x="255.8" target-y="545.6"></path><path d="M 717.70 721.40 L 711.70 731.90 L 705.10 742.40 L 698.00 752.80 L 692.40 760.30 L 680.10 774.90 L 673.40 782.00 L 666.40 788.80 L 659.10 795.30 L 651.30 801.60 L 643.00 807.60 L 634.60 813.20 L 625.60 818.40 L 616.10 823.30 L 606.10 827.90 L 596.00 831.90 L 585.20 835.40 L 573.80 838.60 L 561.80 841.30 L 552.30 842.90 L 542.30 844.20 L 531.80 845.20 L 520.80 845.80 L 509.30 846.10 L 497.70 845.80 L 486.60 845.20 L 476.00 844.20 L 465.90 842.90 L 456.30 841.20 L 444.20 838.40 L 432.70 835.20 L 421.90 831.60 L 411.70 827.60 L 401.60 822.90 L 392.10 817.90 L 383.10 812.60 L 374.60 806.90 L 366.30 800.80 L 358.50 794.40 L 351.10 787.80 L 344.10 780.90 L 337.40 773.70 L 325.10 758.90 L 319.50 751.20 L 312.40 740.70 L 305.80 730.10 L 299.80 719.50 L 309.30 717.20 L 319.20 715.30 L 329.70 713.70 L 340.20 712.60 L 351.10 711.90 L 362.40 711.70 L 402.00 712.00 L 427.50 713.10 L 439.80 714.10 L 452.00 715.60 L 463.90 717.60 L 475.60 720.10 L 484.20 722.40 L 492.70 725.10 L 501.00 728.30 L 509.30 731.90 L 538.10 722.40 L 554.80 717.90 L 572.20 714.80 L 592.50 712.80 L 604.80 712.20 L 633.60 711.70 L 649.00 712.00 L 663.70 712.90 L 677.90 714.20 L 692.00 716.20 L 705.30 718.60 L 717.70 721.40 Z" fill="url(#SVGID_00000022559957614021939520000012820507304020226190_)" fill-rule="nonzero" node-id="431" stroke="none" target-height="134.39996" target-width="417.90002" target-x="299.8" target-y="711.7"></path><path d="M 663.60 545.60 L 355.00 545.60 L 338.90 545.80 L 329.90 546.30 L 320.40 547.10 L 310.90 548.30 L 301.50 550.20 L 295.30 551.80 L 289.40 553.80 L 283.80 556.00 L 278.40 558.80 L 273.50 561.90 L 269.10 565.50 L 266.10 568.50 L 263.40 571.80 L 261.10 575.40 L 259.10 579.30 L 257.70 583.40 L 256.60 587.90 L 255.90 592.90 L 255.80 598.40 L 256.10 603.80 L 257.00 609.70 L 258.50 616.30 L 260.70 623.70 L 270.30 651.40 L 275.80 666.40 L 286.90 693.20 L 297.60 715.20 L 303.50 726.10 L 310.00 737.00 L 317.10 747.80 L 322.70 755.70 L 335.00 771.00 L 341.70 778.40 L 348.70 785.50 L 356.20 792.40 L 364.00 799.00 L 372.40 805.40 L 380.90 811.20 L 390.00 816.80 L 399.70 822.00 L 409.90 826.80 L 418.10 830.20 L 426.80 833.30 L 435.80 836.20 L 445.30 838.70 L 455.30 840.90 L 465.00 842.70 L 475.30 844.10 L 486.10 845.20 L 497.40 845.80 L 509.30 846.10 L 521.20 845.80 L 532.50 845.20 L 543.30 844.10 L 553.60 842.70 L 563.30 840.90 L 573.30 838.70 L 582.80 836.20 L 591.80 833.30 L 600.50 830.20 L 608.70 826.80 L 618.90 822.00 L 628.60 816.80 L 637.70 811.20 L 646.20 805.40 L 654.60 799.00 L 662.40 792.40 L 669.90 785.50 L 676.90 778.40 L 683.60 771.00 L 689.90 763.40 L 701.50 747.80 L 708.60 737.00 L 715.10 726.10 L 721.00 715.20 L 726.60 704.10 L 736.30 682.50 L 742.80 666.40 L 748.30 651.40 L 757.90 623.70 L 760.10 616.30 L 761.60 609.70 L 762.50 603.80 L 762.80 598.40 L 762.60 592.90 L 762.00 587.90 L 760.90 583.40 L 759.40 579.30 L 757.50 575.40 L 755.20 571.80 L 752.50 568.50 L 749.50 565.50 L 745.10 561.90 L 740.20 558.80 L 734.80 556.00 L 729.20 553.80 L 723.30 551.80 L 717.10 550.20 L 707.70 548.30 L 698.10 547.10 L 679.70 545.80 L 663.60 545.60 Z" fill="none" node-id="433" stroke="none" target-height="300.5" target-width="507" target-x="255.8" target-y="545.6"></path><path d="M 682.10 752.10 L 680.40 750.10 L 678.50 748.60 L 676.40 747.60 L 674.10 747.10 L 671.80 747.10 L 669.40 747.60 L 667.30 748.60 L 665.40 750.10 L 663.70 752.10 L 647.90 778.20 L 635.90 800.10 L 630.00 811.70 L 624.50 823.50 L 619.70 835.20 L 616.70 843.00 L 612.30 857.60 L 610.70 864.80 L 609.80 871.30 L 609.50 877.30 L 609.80 883.30 L 610.60 889.10 L 611.80 894.60 L 613.60 899.90 L 615.80 905.00 L 618.60 909.70 L 621.80 914.20 L 625.60 918.30 L 629.70 922.00 L 634.40 925.30 L 639.60 928.20 L 645.40 930.70 L 655.20 933.50 L 660.60 934.50 L 672.90 935.30 L 679.30 935.00 L 685.20 934.50 L 690.60 933.50 L 695.70 932.30 L 700.40 930.70 L 706.20 928.20 L 711.40 925.30 L 716.10 922.00 L 720.20 918.30 L 724.00 914.20 L 727.20 909.70 L 730.00 905.00 L 732.30 899.90 L 734.00 894.60 L 735.30 889.10 L 736.00 883.30 L 736.30 877.30 L 736.00 871.30 L 735.10 864.80 L 733.50 857.60 L 729.10 843.00 L 721.30 823.50 L 715.80 811.70 L 709.90 800.10 L 697.90 778.20 L 682.10 752.10 Z" fill="url(#SVGID_00000098926353178729601730000010327430034107371950_)" fill-rule="nonzero" node-id="435" stroke="none" target-height="188.20001" target-width="126.79999" target-x="609.5" target-y="747.1"></path></svg>